<svg width="40" height="40" viewBox="0 0 40 40" fill="none" xmlns="http://www.w3.org/2000/svg">
<path d="M20.0002 3.40004C10.8335 3.40004 3.33354 10.9134 3.33354 20.1671C3.33354 28.5339 9.43353 35.4784 17.4002 36.7334V25.0199H13.1669V20.1671H17.4002V16.469C17.4002 12.2689 19.8835 9.95961 23.7002 9.95961C25.5169 9.95961 27.4169 10.2776 27.4169 10.2776V14.4108H25.3169C23.2502 14.4108 22.6002 15.6992 22.6002 17.0212V20.1671H27.2335L26.4835 25.0199H22.6002V36.7334C26.5276 36.1106 30.1039 34.0987 32.6834 31.0608C35.2629 28.0229 36.6758 24.1592 36.6669 20.1671C36.6669 10.9134 29.1669 3.40004 20.0002 3.40004Z" fill="black"/>
</svg>
