<svg width="34" height="34" viewBox="0 0 34 34" fill="none" xmlns="http://www.w3.org/2000/svg">
<path d="M9.66667 0.333334H23.6667C29 0.333334 33.3333 4.66667 33.3333 10V24C33.3333 26.5638 32.3149 29.0225 30.502 30.8354C28.6892 32.6482 26.2304 33.6667 23.6667 33.6667H9.66667C4.33333 33.6667 0 29.3333 0 24V10C0 7.43624 1.01845 4.97749 2.8313 3.16464C4.64415 1.35178 7.10291 0.333334 9.66667 0.333334M9.33333 3.66667C7.74203 3.66667 6.21591 4.29881 5.09069 5.42403C3.96547 6.54924 3.33333 8.07537 3.33333 9.66667V24.3333C3.33333 27.65 6.01667 30.3333 9.33333 30.3333H24C25.5913 30.3333 27.1174 29.7012 28.2426 28.576C29.3679 27.4508 30 25.9246 30 24.3333V9.66667C30 6.35 27.3167 3.66667 24 3.66667H9.33333ZM25.4167 6.16667C25.9692 6.16667 26.4991 6.38616 26.8898 6.77686C27.2805 7.16756 27.5 7.69747 27.5 8.25C27.5 8.80253 27.2805 9.33244 26.8898 9.72314C26.4991 10.1138 25.9692 10.3333 25.4167 10.3333C24.8641 10.3333 24.3342 10.1138 23.9435 9.72314C23.5528 9.33244 23.3333 8.80253 23.3333 8.25C23.3333 7.69747 23.5528 7.16756 23.9435 6.77686C24.3342 6.38616 24.8641 6.16667 25.4167 6.16667ZM16.6667 8.66667C18.8768 8.66667 20.9964 9.54464 22.5592 11.1074C24.122 12.6702 25 14.7899 25 17C25 19.2101 24.122 21.3298 22.5592 22.8926C20.9964 24.4554 18.8768 25.3333 16.6667 25.3333C14.4565 25.3333 12.3369 24.4554 10.7741 22.8926C9.21131 21.3298 8.33333 19.2101 8.33333 17C8.33333 14.7899 9.21131 12.6702 10.7741 11.1074C12.3369 9.54464 14.4565 8.66667 16.6667 8.66667M16.6667 12C15.3406 12 14.0688 12.5268 13.1311 13.4645C12.1934 14.4021 11.6667 15.6739 11.6667 17C11.6667 18.3261 12.1934 19.5979 13.1311 20.5355C14.0688 21.4732 15.3406 22 16.6667 22C17.9927 22 19.2645 21.4732 20.2022 20.5355C21.1399 19.5979 21.6667 18.3261 21.6667 17C21.6667 15.6739 21.1399 14.4021 20.2022 13.4645C19.2645 12.5268 17.9927 12 16.6667 12Z" fill="black"/>
</svg>
