<svg width="24" height="24" viewBox="0 0 24 24" fill="none" xmlns="http://www.w3.org/2000/svg">
<path d="M9.58636 16.8179C9.29258 16.1781 8.08928 15.244 7.78987 15.1092C7.10493 14.7264 6.30864 14.573 5.5245 14.6729C4.74036 14.7729 4.01218 15.1205 3.4529 15.6618C2.89361 16.2032 2.53447 16.9081 2.43117 17.6672C2.32787 18.4264 2.48619 19.1973 2.88156 19.8604C3.27694 20.5235 3.88728 21.0418 4.61794 21.3349C5.3486 21.628 6.15874 21.6796 6.92273 21.4815C7.68672 21.2835 8.36186 20.8469 8.84346 20.2396C9.32505 19.6322 9.58619 18.888 9.58637 18.1223V5.91005C9.58637 5.44257 9.91025 5.03746 10.3663 4.93457L21.6004 2.3999L21.6003 15.6399M21.6003 15.6399L21.6004 16.9445C21.6002 17.7102 21.3391 18.4544 20.8575 19.0618C20.3759 19.6691 19.7007 20.1057 18.9368 20.3037C18.1728 20.5018 17.3626 20.4502 16.632 20.1571C15.9013 19.864 15.291 19.3457 14.8956 18.6826C14.5002 18.0194 14.3419 17.2485 14.4452 16.4894C14.5485 15.7303 14.9076 15.0254 15.4669 14.484C16.0262 13.9426 16.7544 13.595 17.5385 13.4951C18.3227 13.3952 19.119 13.5486 19.8039 13.9314C20.1033 14.0662 21.3063 15.0001 21.6003 15.6399Z" stroke="white" stroke-width="2" stroke-linecap="round" stroke-linejoin="round"/>
</svg>
