<svg width="20" height="20" viewBox="0 0 20 20" fill="none" xmlns="http://www.w3.org/2000/svg">
<path fill-rule="evenodd" clip-rule="evenodd" d="M9.99967 6.66659C10.9163 6.66659 11.6663 5.91659 11.6663 4.99992C11.6663 4.08325 10.9163 3.33325 9.99967 3.33325C9.08301 3.33325 8.33301 4.08325 8.33301 4.99992C8.33301 5.91659 9.08301 6.66659 9.99967 6.66659ZM9.99967 8.33325C9.08301 8.33325 8.33301 9.08325 8.33301 9.99992C8.33301 10.9166 9.08301 11.6666 9.99967 11.6666C10.9163 11.6666 11.6663 10.9166 11.6663 9.99992C11.6663 9.08325 10.9163 8.33325 9.99967 8.33325ZM9.99967 13.3333C9.08301 13.3333 8.33301 14.0833 8.33301 14.9999C8.33301 15.9166 9.08301 16.6666 9.99967 16.6666C10.9163 16.6666 11.6663 15.9166 11.6663 14.9999C11.6663 14.0833 10.9163 13.3333 9.99967 13.3333Z" fill="white"/>
</svg>
