<svg width="40" height="40" viewBox="0 0 40 40" fill="none" xmlns="http://www.w3.org/2000/svg">
<path d="M15.0006 26.994L23.6506 22.0833L15.0006 17.1726V26.994ZM34.2673 14.1771C34.4839 14.9464 34.6339 15.9777 34.7339 17.2872C34.8506 18.5967 34.9006 19.7262 34.9006 20.7083L35.0006 22.0833C35.0006 25.6681 34.7339 28.3035 34.2673 29.9896C33.8506 31.4628 32.8839 32.4122 31.3839 32.8214C30.6006 33.0342 29.1673 33.1815 26.9673 33.2797C24.8006 33.3943 22.8173 33.4434 20.9839 33.4434L18.3339 33.5416C11.3506 33.5416 7.00061 33.2797 5.28394 32.8214C3.78394 32.4122 2.81727 31.4628 2.40061 29.9896C2.18394 29.2202 2.03394 28.189 1.93394 26.8794C1.81727 25.5699 1.76727 24.4405 1.76727 23.4583L1.66727 22.0833C1.66727 18.4985 1.93394 15.8631 2.40061 14.1771C2.81727 12.7038 3.78394 11.7544 5.28394 11.3452C6.06727 11.1324 7.50061 10.9851 9.70061 10.8869C11.8673 10.7723 13.8506 10.7232 15.6839 10.7232L18.3339 10.625C25.3173 10.625 29.6673 10.8869 31.3839 11.3452C32.8839 11.7544 33.8506 12.7038 34.2673 14.1771Z" fill="black"/>
</svg>
