<svg width="390" height="250" viewBox="0 0 390 250" fill="none" xmlns="http://www.w3.org/2000/svg">
<path opacity="0.3" d="M93.8414 68.2929C93.8414 68.2929 91.8042 61.7302 87.7244 60.0937C87.0213 59.7754 86.2607 59.6124 85.492 59.6153C84.7232 59.6181 83.9637 59.7868 83.2629 60.1102C82.5621 60.4336 81.9357 60.9046 81.4246 61.4925C80.9134 62.0804 80.529 62.7719 80.2963 63.522C79.7165 65.6079 79.2777 66.9504 78.129 65.6079C76.9804 64.2654 74.2009 64.4152 73.1769 66.9504C72.1529 69.4856 71.7249 71.4216 70.7063 69.9294C69.6877 68.4371 67.6451 67.9933 66.7728 69.3358C66.2591 70.1142 65.8661 70.9694 65.6079 71.871H99.8283C99.8283 71.871 100.121 69.9294 98.2029 67.9878C96.2849 66.0461 95.158 68.8864 93.8414 68.2929Z" stroke="#3A3737" stroke-width="1.19744" stroke-linecap="round" stroke-linejoin="round"/>
<path opacity="0.3" d="M318.118 153.541C318.118 153.541 316.075 146.978 312.001 145.342C311.298 145.023 310.537 144.859 309.768 144.861C308.999 144.864 308.239 145.032 307.538 145.356C306.837 145.679 306.211 146.151 305.7 146.739C305.189 147.327 304.805 148.019 304.573 148.77C303.993 150.856 303.554 152.199 302.405 150.856C301.257 149.514 298.472 149.663 297.453 152.199C296.435 154.734 295.996 156.67 294.977 155.177C293.959 153.685 291.921 153.241 291.049 154.584C290.533 155.361 290.14 156.216 289.884 157.119H324.099C324.099 157.119 324.392 155.177 322.501 153.236C320.61 151.294 319.423 154.146 318.118 153.541Z" stroke="#3A3737" stroke-width="1.19744" stroke-linecap="round" stroke-linejoin="round"/>
<path opacity="0.3" d="M342.525 72.7754C342.525 72.7754 340.488 66.2183 336.413 64.5762C335.71 64.257 334.95 64.0933 334.181 64.0957C333.412 64.0981 332.652 64.2666 331.951 64.5902C331.25 64.9137 330.623 65.3851 330.112 65.9734C329.601 66.5618 329.217 67.2539 328.985 68.0045C328.4 70.0904 327.967 71.4329 326.818 70.0904C325.669 68.7479 322.885 68.8977 321.866 71.4329C320.847 73.9681 320.408 75.9042 319.39 74.4174C318.371 72.9307 316.334 72.4758 315.456 73.8183C314.943 74.5968 314.55 75.452 314.292 76.3535H348.512C348.512 76.3535 348.805 74.4174 346.887 72.4703C344.969 70.5231 343.847 73.3745 342.525 72.7754Z" stroke="#3A3737" stroke-width="1.19744" stroke-linecap="round" stroke-linejoin="round"/>
<path opacity="0.3" d="M160.305 15.8182C160.305 15.8182 156.924 4.95064 150.162 2.22128C143.4 -0.50808 138.817 4.44027 137.852 7.90745C136.888 11.3746 136.162 13.5936 134.233 11.3691C132.304 9.14453 127.731 9.38862 126.025 13.5881C124.318 17.7875 123.608 21.005 121.918 18.5309C120.227 16.0567 116.847 15.3189 115.416 17.5434C114.564 18.8331 113.912 20.2495 113.482 21.7429H170.204C170.204 21.7429 170.686 18.5309 167.549 15.3189C164.412 12.1069 162.477 16.8056 160.305 15.8182Z" stroke="#3A3737" stroke-width="1.19744" stroke-linecap="round" stroke-linejoin="round"/>
<path opacity="0.13" d="M29.0581 248.142C29.0581 248.142 29.4265 229.108 41.33 223.777C53.2335 218.446 55.8287 229.108 58.8032 232.531C61.7777 235.954 60.2932 239.743 69.959 232.154C79.6248 224.565 82.6047 228.343 85.9477 232.531C89.2906 236.719 91.9075 239.388 95.9873 236.719C100.067 234.051 102.576 234.417 105.285 237.862C107.994 241.307 113.84 243.964 119.415 241.668C124.99 239.371 128.712 239.005 131.687 241.668C134.661 244.331 138.378 246.239 142.1 244.336C145.823 242.433 149.144 244.713 150.65 245.479C152.156 246.244 156.973 248.142 156.973 248.142H29.0581Z" fill="#3A3737"/>
<path opacity="0.3" d="M85.3242 38.8301L91.6959 45.3539" stroke="#3A3737" stroke-width="1.19744" stroke-linecap="round" stroke-linejoin="round"/>
<path opacity="0.3" d="M91.6959 38.8301L85.3242 45.3539" stroke="#3A3737" stroke-width="1.19744" stroke-linecap="round" stroke-linejoin="round"/>
<path opacity="0.3" d="M138.676 103.236L145.042 109.76" stroke="#3A3737" stroke-width="1.19744" stroke-linecap="round" stroke-linejoin="round"/>
<path opacity="0.3" d="M145.042 103.236L138.676 109.76" stroke="#3A3737" stroke-width="1.19744" stroke-linecap="round" stroke-linejoin="round"/>
<path opacity="0.3" d="M278.017 16.8164L284.389 23.3402" stroke="#3A3737" stroke-width="1.19744" stroke-linecap="round" stroke-linejoin="round"/>
<path opacity="0.3" d="M284.389 16.8164L278.017 23.3402" stroke="#3A3737" stroke-width="1.19744" stroke-linecap="round" stroke-linejoin="round"/>
<path opacity="0.3" d="M125.862 184.051L132.234 190.569" stroke="#3A3737" stroke-width="1.19744" stroke-linecap="round" stroke-linejoin="round"/>
<path opacity="0.3" d="M132.234 184.051L125.862 190.569" stroke="#3A3737" stroke-width="1.19744" stroke-linecap="round" stroke-linejoin="round"/>
<path d="M248.106 237.785H241.146V237.99H248.106V237.785Z" fill="#EBEBEB"/>
<path d="M315.835 227.963H300.464V228.168H315.835V227.963Z" fill="#EBEBEB"/>
<path d="M59.427 229.338H24.834V229.543H59.427V229.338Z" fill="#EBEBEB"/>
<path d="M71.6335 229.338H66.5635V229.543H71.6335V229.338Z" fill="#EBEBEB"/>
<path d="M163.15 232.791H88.1172V232.996H163.15V232.791Z" fill="#EBEBEB"/>
<path d="M101.517 223.249H84.2964V220.793L101.517 219.156V223.249Z" fill="#F5F5F5"/>
<path d="M248.771 55.3828L240.297 154.337L170.551 148.1L176.23 155.017L245.976 161.253L254.45 62.299L248.771 55.3828Z" fill="#263238"/>
<path opacity="0.5" d="M248.771 55.3828L240.297 154.337L170.551 148.1L176.23 155.017L245.976 161.253L254.45 62.299L248.771 55.3828Z" fill="white"/>
<path d="M171.085 147.652L179.472 49.6872L248.221 55.8336L239.834 153.798L171.085 147.652Z" fill="white" stroke="#3A3737"/>
<path d="M250.678 69.7545C250.6 69.7473 250.524 69.7244 250.455 69.6872C250.385 69.6499 250.324 69.599 250.274 69.5373C250.224 69.4757 250.187 69.4045 250.164 69.328C250.141 69.2515 250.133 69.1711 250.141 69.0915L250.365 66.4806C250.371 66.4009 250.393 66.3233 250.428 66.2522C250.464 66.181 250.513 66.1178 250.572 66.0661C250.632 66.0143 250.701 65.9751 250.775 65.9508C250.85 65.9264 250.928 65.9173 251.006 65.924C251.162 65.9386 251.306 66.0156 251.407 66.1383C251.507 66.261 251.556 66.4193 251.543 66.5788L251.318 69.1979C251.312 69.2776 251.291 69.3552 251.255 69.4263C251.22 69.4975 251.171 69.5607 251.111 69.6125C251.052 69.6642 250.983 69.7034 250.908 69.7278C250.834 69.7521 250.756 69.7612 250.678 69.7545Z" fill="#263238"/>
<path d="M246.456 119.028C246.379 119.022 246.303 119 246.234 118.963C246.165 118.927 246.103 118.877 246.053 118.816C246.003 118.755 245.966 118.684 245.943 118.608C245.92 118.532 245.912 118.452 245.92 118.373L249.788 73.1763C249.794 73.097 249.816 73.0197 249.852 72.949C249.887 72.8783 249.936 72.8155 249.996 72.7644C250.056 72.7134 250.125 72.675 250.199 72.6515C250.274 72.6281 250.352 72.6201 250.429 72.6279C250.507 72.6341 250.583 72.656 250.653 72.6923C250.722 72.7286 250.784 72.7787 250.835 72.8395C250.885 72.9004 250.924 72.9709 250.948 73.0469C250.972 73.123 250.98 73.2031 250.974 73.2827L247.081 118.479C247.069 118.636 246.996 118.782 246.879 118.885C246.762 118.988 246.61 119.039 246.456 119.028Z" fill="#263238"/>
<path d="M244.406 143.041C244.249 143.025 244.104 142.946 244.002 142.823C243.901 142.699 243.85 142.54 243.861 142.378L245.479 123.251C245.485 123.171 245.507 123.094 245.542 123.023C245.578 122.952 245.627 122.89 245.687 122.839C245.747 122.788 245.816 122.749 245.89 122.726C245.964 122.702 246.043 122.694 246.12 122.702C246.276 122.717 246.42 122.794 246.521 122.916C246.621 123.039 246.67 123.197 246.657 123.357L245.055 142.485C245.041 142.646 244.964 142.796 244.843 142.9C244.721 143.004 244.564 143.055 244.406 143.041Z" fill="#263238"/>
<path d="M243.725 150.989C243.648 150.983 243.572 150.961 243.502 150.924C243.432 150.888 243.37 150.838 243.32 150.777C243.269 150.716 243.231 150.646 243.207 150.57C243.183 150.494 243.174 150.414 243.181 150.334L243.485 146.815C243.491 146.735 243.513 146.657 243.548 146.586C243.584 146.515 243.633 146.452 243.692 146.4C243.752 146.348 243.821 146.309 243.895 146.285C243.97 146.26 244.048 146.251 244.126 146.258C244.282 146.273 244.426 146.35 244.526 146.472C244.627 146.595 244.676 146.753 244.663 146.913L244.366 150.44C244.352 150.6 244.277 150.747 244.157 150.85C244.036 150.952 243.881 151.002 243.725 150.989Z" fill="#263238"/>
<path d="M195.444 154.14L183.23 153.051C183.073 153.035 182.929 152.956 182.829 152.832C182.728 152.708 182.68 152.549 182.693 152.388C182.707 152.229 182.783 152.082 182.903 151.979C183.023 151.876 183.178 151.826 183.334 151.84L195.548 152.929C195.706 152.945 195.85 153.024 195.952 153.147C196.054 153.271 196.104 153.431 196.093 153.592C196.077 153.752 196 153.899 195.878 154.001C195.757 154.104 195.601 154.154 195.444 154.14Z" fill="#263238"/>
<path d="M225.392 156.816L200.77 154.614C200.692 154.608 200.616 154.586 200.547 154.55C200.477 154.514 200.415 154.464 200.365 154.403C200.314 154.342 200.276 154.271 200.252 154.195C200.228 154.119 200.219 154.039 200.226 153.96C200.233 153.88 200.255 153.802 200.292 153.732C200.328 153.661 200.378 153.598 200.438 153.547C200.499 153.496 200.568 153.458 200.643 153.435C200.718 153.411 200.797 153.403 200.874 153.411L225.496 155.613C225.574 155.619 225.65 155.641 225.719 155.677C225.789 155.714 225.851 155.764 225.901 155.824C225.952 155.885 225.99 155.956 226.014 156.032C226.038 156.108 226.047 156.188 226.04 156.268C226.033 156.347 226.011 156.425 225.974 156.496C225.938 156.566 225.888 156.629 225.828 156.68C225.767 156.731 225.698 156.769 225.623 156.793C225.548 156.816 225.469 156.824 225.392 156.816Z" fill="#263238"/>
<path d="M232.288 157.43L228.94 157.135C228.784 157.121 228.64 157.044 228.539 156.921C228.439 156.798 228.39 156.64 228.403 156.481C228.409 156.401 228.431 156.323 228.466 156.252C228.502 156.181 228.551 156.118 228.61 156.066C228.67 156.014 228.739 155.975 228.813 155.951C228.888 155.926 228.966 155.917 229.044 155.924L232.392 156.227C232.47 156.233 232.546 156.255 232.615 156.291C232.685 156.328 232.747 156.378 232.797 156.438C232.848 156.499 232.886 156.57 232.91 156.646C232.934 156.722 232.943 156.802 232.936 156.882C232.929 156.961 232.907 157.039 232.871 157.11C232.834 157.18 232.784 157.243 232.724 157.294C232.664 157.345 232.594 157.383 232.519 157.407C232.444 157.43 232.366 157.438 232.288 157.43Z" fill="#263238"/>
<g opacity="0.4">
<path d="M250.678 69.7545C250.6 69.7473 250.524 69.7244 250.455 69.6872C250.385 69.6499 250.324 69.599 250.274 69.5373C250.224 69.4757 250.187 69.4045 250.164 69.328C250.141 69.2515 250.133 69.1711 250.141 69.0915L250.365 66.4806C250.371 66.4009 250.393 66.3233 250.428 66.2522C250.464 66.181 250.513 66.1178 250.572 66.0661C250.632 66.0143 250.701 65.9751 250.775 65.9508C250.85 65.9264 250.928 65.9173 251.006 65.924C251.162 65.9386 251.306 66.0156 251.407 66.1383C251.507 66.261 251.556 66.4193 251.543 66.5788L251.318 69.1979C251.312 69.2776 251.291 69.3552 251.255 69.4263C251.22 69.4975 251.171 69.5607 251.111 69.6125C251.052 69.6642 250.983 69.7034 250.908 69.7278C250.834 69.7521 250.756 69.7612 250.678 69.7545Z" fill="white"/>
<path d="M246.456 119.028C246.379 119.022 246.303 119 246.234 118.963C246.165 118.927 246.103 118.877 246.053 118.816C246.003 118.755 245.966 118.684 245.943 118.608C245.92 118.532 245.912 118.452 245.92 118.373L249.788 73.1763C249.794 73.097 249.816 73.0197 249.852 72.949C249.887 72.8783 249.936 72.8155 249.996 72.7644C250.056 72.7134 250.125 72.675 250.199 72.6515C250.274 72.6281 250.352 72.6201 250.429 72.6279C250.507 72.6341 250.583 72.656 250.653 72.6923C250.722 72.7286 250.784 72.7787 250.835 72.8395C250.885 72.9004 250.924 72.9709 250.948 73.0469C250.972 73.123 250.98 73.2031 250.974 73.2827L247.081 118.479C247.069 118.636 246.996 118.782 246.879 118.885C246.762 118.988 246.61 119.039 246.456 119.028Z" fill="white"/>
<path d="M244.406 143.041C244.249 143.025 244.104 142.946 244.002 142.823C243.901 142.699 243.85 142.54 243.861 142.378L245.479 123.251C245.485 123.171 245.507 123.094 245.542 123.023C245.578 122.952 245.627 122.89 245.687 122.839C245.747 122.788 245.816 122.749 245.89 122.726C245.964 122.702 246.043 122.694 246.12 122.702C246.276 122.717 246.42 122.794 246.521 122.916C246.621 123.039 246.67 123.197 246.657 123.357L245.055 142.485C245.041 142.646 244.964 142.796 244.843 142.9C244.721 143.004 244.564 143.055 244.406 143.041Z" fill="white"/>
<path d="M243.725 150.989C243.648 150.983 243.572 150.961 243.502 150.924C243.432 150.888 243.37 150.838 243.32 150.777C243.269 150.716 243.231 150.646 243.207 150.57C243.183 150.494 243.174 150.414 243.181 150.334L243.485 146.815C243.491 146.735 243.513 146.657 243.548 146.586C243.584 146.515 243.633 146.452 243.692 146.4C243.752 146.348 243.821 146.309 243.895 146.285C243.97 146.26 244.048 146.251 244.126 146.258C244.282 146.273 244.426 146.35 244.526 146.472C244.627 146.595 244.676 146.753 244.663 146.913L244.366 150.44C244.352 150.6 244.277 150.747 244.157 150.85C244.036 150.952 243.881 151.002 243.725 150.989Z" fill="white"/>
<path d="M195.444 154.14L183.23 153.051C183.073 153.035 182.929 152.956 182.829 152.832C182.728 152.708 182.68 152.549 182.693 152.388C182.707 152.229 182.783 152.082 182.903 151.979C183.023 151.876 183.178 151.826 183.334 151.84L195.548 152.929C195.706 152.945 195.85 153.024 195.952 153.147C196.054 153.271 196.104 153.431 196.093 153.592C196.077 153.752 196 153.899 195.878 154.001C195.757 154.104 195.601 154.154 195.444 154.14Z" fill="white"/>
<path d="M225.392 156.816L200.77 154.614C200.692 154.608 200.616 154.586 200.547 154.55C200.477 154.514 200.415 154.464 200.365 154.403C200.314 154.342 200.276 154.271 200.252 154.195C200.228 154.119 200.219 154.039 200.226 153.96C200.233 153.88 200.255 153.802 200.292 153.732C200.328 153.661 200.378 153.598 200.438 153.547C200.499 153.496 200.568 153.458 200.643 153.435C200.718 153.411 200.797 153.403 200.874 153.411L225.496 155.613C225.574 155.619 225.65 155.641 225.719 155.677C225.789 155.714 225.851 155.764 225.901 155.824C225.952 155.885 225.99 155.956 226.014 156.032C226.038 156.108 226.047 156.188 226.04 156.268C226.033 156.347 226.011 156.425 225.974 156.496C225.938 156.566 225.888 156.629 225.828 156.68C225.767 156.731 225.698 156.769 225.623 156.793C225.548 156.816 225.469 156.824 225.392 156.816Z" fill="white"/>
<path d="M232.288 157.43L228.94 157.135C228.784 157.121 228.64 157.044 228.539 156.921C228.439 156.798 228.39 156.64 228.403 156.481C228.409 156.401 228.431 156.323 228.466 156.252C228.502 156.181 228.551 156.118 228.61 156.066C228.67 156.014 228.739 155.975 228.813 155.951C228.888 155.926 228.966 155.917 229.044 155.924L232.392 156.227C232.47 156.233 232.546 156.255 232.615 156.291C232.685 156.328 232.747 156.378 232.797 156.438C232.848 156.499 232.886 156.57 232.91 156.646C232.934 156.722 232.943 156.802 232.936 156.882C232.929 156.961 232.907 157.039 232.871 157.11C232.834 157.18 232.784 157.243 232.724 157.294C232.664 157.345 232.594 157.383 232.519 157.407C232.444 157.43 232.366 157.438 232.288 157.43Z" fill="white"/>
</g>
<path d="M182.533 90.3394C180.058 90.7077 172.593 89.4473 172.593 89.4473L170.919 109.091C170.919 109.091 178.48 109.173 180.851 109.975C181.582 110.344 182.282 110.777 182.941 111.268L184.807 89.4473C184.076 89.8112 183.315 90.1097 182.533 90.3394Z" fill="#263238"/>
<path d="M181.532 110.311C182.181 110.704 182.941 111.252 182.941 111.252L184.808 89.4316C184.808 89.4316 184.007 89.8409 183.262 90.111L181.532 110.311Z" fill="#3A3737"/>
<path d="M183.141 112.372C182.868 112.347 182.615 112.213 182.438 111.998C182.261 111.784 182.174 111.506 182.196 111.226L184.071 89.332C184.082 89.1924 184.12 89.0565 184.183 88.9321C184.246 88.8077 184.332 88.6973 184.437 88.6075C184.542 88.5176 184.664 88.45 184.795 88.4085C184.926 88.3671 185.063 88.3527 185.2 88.3662C185.335 88.3775 185.467 88.4163 185.588 88.4802C185.709 88.5441 185.816 88.632 185.903 88.7386C185.99 88.8453 186.056 88.9686 186.096 89.1014C186.136 89.2341 186.15 89.3738 186.137 89.5121L184.263 111.406C184.252 111.545 184.214 111.681 184.151 111.804C184.089 111.928 184.003 112.038 183.899 112.128C183.795 112.218 183.674 112.286 183.544 112.327C183.414 112.369 183.277 112.385 183.141 112.372Z" fill="#263238"/>
<path d="M182.02 95.0627L181.147 105.212L174.347 102.265C174.226 102.218 174.095 102.206 173.967 102.23C173.84 102.255 173.722 102.315 173.626 102.404C173.201 102.791 172.704 103.084 172.164 103.267C171.624 103.45 171.053 103.519 170.487 103.468C170.102 103.454 169.724 103.356 169.379 103.181C169.034 103.006 168.729 102.758 168.484 102.454C167.579 101.275 167.731 99.3515 167.996 97.6245C168.111 96.8113 168.53 96.0753 169.165 95.5704C169.799 95.0655 170.6 94.8308 171.4 94.9154C172.475 95.0574 173.454 95.6209 174.131 96.4868C174.208 96.5955 174.314 96.6793 174.436 96.7286C174.558 96.7779 174.691 96.7906 174.82 96.7651L182.02 95.0627ZM180.37 103.886L181.027 96.2331L175.02 97.6491C174.726 97.7147 174.419 97.6941 174.136 97.5899C173.853 97.4857 173.604 97.3019 173.418 97.0598C172.89 96.3758 172.124 95.927 171.28 95.8075C170.71 95.7558 170.142 95.9301 169.695 96.2943C169.248 96.6585 168.955 97.1846 168.877 97.7637C168.652 99.2042 168.484 100.972 169.181 101.856C169.353 102.059 169.564 102.222 169.801 102.336C170.039 102.45 170.297 102.513 170.559 102.519C171.005 102.564 171.456 102.514 171.883 102.373C172.31 102.232 172.705 102.004 173.042 101.701C173.26 101.494 173.531 101.356 173.823 101.302C174.116 101.249 174.417 101.282 174.692 101.398L180.37 103.886Z" fill="#263238"/>
<g opacity="0.5">
<path d="M182.02 95.0627L181.147 105.212L174.347 102.265C174.226 102.218 174.095 102.206 173.967 102.23C173.84 102.255 173.722 102.315 173.626 102.404C173.201 102.791 172.704 103.084 172.164 103.267C171.624 103.45 171.053 103.519 170.487 103.468C170.102 103.454 169.724 103.356 169.379 103.181C169.034 103.006 168.729 102.758 168.484 102.454C167.579 101.275 167.731 99.3515 167.996 97.6245C168.111 96.8113 168.53 96.0753 169.165 95.5704C169.799 95.0655 170.6 94.8308 171.4 94.9154C172.475 95.0574 173.454 95.6209 174.131 96.4868C174.208 96.5955 174.314 96.6793 174.436 96.7286C174.558 96.7779 174.691 96.7906 174.82 96.7651L182.02 95.0627ZM180.37 103.886L181.027 96.2331L175.02 97.6491C174.726 97.7147 174.419 97.6941 174.136 97.5899C173.853 97.4857 173.604 97.3019 173.418 97.0598C172.89 96.3758 172.124 95.927 171.28 95.8075C170.71 95.7558 170.142 95.9301 169.695 96.2943C169.248 96.6585 168.955 97.1846 168.877 97.7637C168.652 99.2042 168.484 100.972 169.181 101.856C169.353 102.059 169.564 102.222 169.801 102.336C170.039 102.45 170.297 102.513 170.559 102.519C171.005 102.564 171.456 102.514 171.883 102.373C172.31 102.232 172.705 102.004 173.042 101.701C173.26 101.494 173.531 101.356 173.823 101.302C174.116 101.249 174.417 101.282 174.692 101.398L180.37 103.886Z" fill="white"/>
</g>
<path d="M230.822 67.8383L193.089 64.4661C192.856 64.4433 192.641 64.3273 192.491 64.1434C192.341 63.9595 192.268 63.7225 192.288 63.484C192.313 63.245 192.428 63.0253 192.609 62.8722C192.79 62.7191 193.023 62.6449 193.258 62.6655L230.982 66.0376C231.098 66.0479 231.211 66.0815 231.314 66.1365C231.417 66.1916 231.508 66.2669 231.583 66.3582C231.657 66.4495 231.713 66.555 231.748 66.6685C231.782 66.7821 231.794 66.9015 231.783 67.0198C231.773 67.1382 231.74 67.2534 231.686 67.3588C231.633 67.4641 231.559 67.5576 231.469 67.6337C231.38 67.7098 231.277 67.767 231.166 67.8021C231.055 67.8373 230.938 67.8495 230.822 67.8383Z" fill="#263238"/>
<path d="M225.376 73.0114L197.575 70.556C197.342 70.5331 197.127 70.4172 196.977 70.2332C196.827 70.0493 196.754 69.8123 196.774 69.5738C196.798 69.3348 196.913 69.1151 197.095 68.962C197.276 68.809 197.509 68.7347 197.743 68.7553L225.536 71.2108C225.652 71.221 225.764 71.2547 225.868 71.3097C225.971 71.3647 226.062 71.44 226.137 71.5314C226.211 71.6227 226.267 71.7281 226.301 71.8417C226.336 71.9552 226.348 72.0746 226.337 72.193C226.314 72.4313 226.201 72.6509 226.021 72.8042C225.841 72.9575 225.609 73.0319 225.376 73.0114Z" fill="#263238"/>
<path d="M231.543 135.241C231.537 135.321 231.516 135.398 231.48 135.469C231.444 135.54 231.395 135.602 231.336 135.653C231.276 135.704 231.207 135.743 231.132 135.766C231.058 135.79 230.98 135.798 230.902 135.79L182.957 131.509C182.88 131.502 182.804 131.479 182.734 131.442C182.665 131.405 182.604 131.354 182.554 131.292C182.504 131.23 182.467 131.159 182.444 131.083C182.421 131.006 182.413 130.926 182.421 130.846C182.427 130.767 182.448 130.69 182.484 130.619C182.52 130.548 182.569 130.485 182.628 130.434C182.688 130.383 182.757 130.345 182.832 130.321C182.906 130.298 182.984 130.29 183.062 130.298L231.006 134.587C231.084 134.593 231.16 134.615 231.229 134.651C231.298 134.688 231.359 134.738 231.409 134.799C231.459 134.86 231.497 134.93 231.52 135.006C231.543 135.082 231.551 135.162 231.543 135.241Z" fill="#263238"/>
<path d="M226.096 140.414C226.09 140.493 226.069 140.571 226.033 140.641C225.998 140.712 225.949 140.775 225.889 140.826C225.829 140.877 225.76 140.915 225.686 140.939C225.611 140.962 225.533 140.97 225.456 140.963L187.443 137.549C187.287 137.535 187.143 137.458 187.042 137.335C186.942 137.212 186.893 137.054 186.906 136.895C186.912 136.815 186.933 136.737 186.969 136.666C187.005 136.595 187.053 136.532 187.113 136.48C187.173 136.428 187.242 136.389 187.316 136.365C187.39 136.34 187.469 136.331 187.547 136.338L225.56 139.735C225.638 139.742 225.714 139.765 225.783 139.802C225.852 139.839 225.913 139.89 225.963 139.952C226.013 140.014 226.051 140.085 226.073 140.161C226.096 140.238 226.104 140.318 226.096 140.398V140.414Z" fill="#263238"/>
<path d="M217.466 111.651C222.87 107.018 223.575 98.786 219.041 93.2644C214.507 87.7427 206.451 87.0225 201.047 91.6557C195.644 96.2889 194.939 104.521 199.473 110.043C204.007 115.564 212.063 116.285 217.466 111.651Z" fill="#FF6F61"/>
<path d="M214.793 105.947C214.717 106.873 212.027 107.39 208.784 107.097C205.541 106.805 202.985 105.821 203.061 104.895L203.414 100.85L215.146 101.893L214.793 105.947Z" fill="#263238"/>
<path opacity="0.6" d="M203.319 101.98C203.768 102.819 206.181 103.637 209.042 103.93C211.904 104.222 214.441 103.803 215.032 103.052L215.128 101.922L203.396 100.879L203.319 101.98Z" fill="#3A3737"/>
<path d="M209.032 103.542L199.589 99.6427C199.545 99.6287 199.505 99.6003 199.477 99.5617C199.449 99.5231 199.434 99.4764 199.434 99.4283C199.434 99.3803 199.449 99.3335 199.477 99.2949C199.505 99.2563 199.545 99.2279 199.589 99.2139L209.614 96.2898C209.638 96.2777 209.664 96.2715 209.69 96.2715C209.717 96.2715 209.743 96.2777 209.767 96.2898L219.143 100.959C219.184 100.977 219.218 101.007 219.243 101.045C219.267 101.083 219.28 101.128 219.28 101.173C219.28 101.219 219.267 101.263 219.243 101.301C219.218 101.339 219.184 101.369 219.143 101.387L209.166 103.542C209.122 103.552 209.076 103.552 209.032 103.542Z" fill="#263238"/>
<path d="M148.757 151.484H181.548V119.883H148.757V151.484Z" fill="#263238"/>
<path d="M116.767 151.484H149.558V119.883H116.767V151.484Z" fill="#263238"/>
<path d="M148.428 123.107H181.54V118.72H148.428V123.107Z" fill="#263238"/>
<path d="M148.437 120.604L207.651 120.604V115.504H148.437V120.604Z" fill="#263238"/>
<path opacity="0.2" d="M116.767 151.484H149.558V119.883H116.767V151.484Z" fill="black"/>
<path opacity="0.2" d="M148.437 120.604L207.651 120.604V115.504H148.437V120.604Z" fill="#3A3737"/>
<path d="M90.6643 120.604L149.878 120.604V115.504H90.6643V120.604Z" fill="#263238"/>
<path d="M89.9196 168.916C90.132 168.916 90.3358 168.83 90.486 168.677C90.6362 168.523 90.7205 168.315 90.7205 168.098V118.498C90.7195 118.15 90.7856 117.805 90.9152 117.484C91.0447 117.162 91.2351 116.87 91.4754 116.623C91.7158 116.377 92.0013 116.181 92.3157 116.048C92.6301 115.915 92.9672 115.846 93.3076 115.846H148.333C148.545 115.846 148.749 115.76 148.899 115.606C149.049 115.453 149.134 115.245 149.134 115.027C149.134 114.81 149.049 114.602 148.899 114.449C148.749 114.295 148.545 114.209 148.333 114.209H93.3076C92.1959 114.211 91.1304 114.664 90.3451 115.468C89.5597 116.272 89.1187 117.362 89.1187 118.498V168.098C89.1187 168.315 89.203 168.523 89.3532 168.677C89.5035 168.83 89.7072 168.916 89.9196 168.916Z" fill="#FF6F61"/>
<path d="M89.7432 171.043C92.6907 171.043 95.0775 174.972 95.0775 179.817V186.054H92.4344C92.1461 186.054 90.5281 185.727 90.5281 179.76C90.5281 179.76 89.6311 186.038 91.1208 186.054H88.8702C88.8702 186.054 87.5246 185.792 87.5246 182.469V177.427C87.5246 177.427 85.37 186.021 87.5246 186.021H84.4009V179.784C84.4009 174.972 86.7957 171.043 89.7432 171.043Z" fill="#FF6F61"/>
<path d="M87.9494 169.735H91.5376C91.7501 169.735 91.9538 169.648 92.104 169.495C92.2542 169.341 92.3386 169.133 92.3386 168.916C92.3386 168.699 92.2542 168.491 92.104 168.337C91.9538 168.184 91.7501 168.098 91.5376 168.098H87.9494C87.737 168.098 87.5332 168.184 87.383 168.337C87.2328 168.491 87.1484 168.699 87.1484 168.916C87.1484 169.133 87.2328 169.341 87.383 169.495C87.5332 169.648 87.737 169.735 87.9494 169.735Z" fill="#FF6F61"/>
<path d="M87.9494 171.371H91.5376C91.7501 171.371 91.9538 171.285 92.104 171.132C92.2542 170.978 92.3386 170.77 92.3386 170.553C92.3386 170.336 92.2542 170.128 92.104 169.974C91.9538 169.821 91.7501 169.734 91.5376 169.734H87.9494C87.737 169.734 87.5332 169.821 87.383 169.974C87.2328 170.128 87.1484 170.336 87.1484 170.553C87.1484 170.77 87.2328 170.978 87.383 171.132C87.5332 171.285 87.737 171.371 87.9494 171.371Z" fill="#FF6F61"/>
<path d="M113.294 246.835V213.23H258.185C256.981 224.391 256.997 235.679 258.231 246.835H113.294Z" fill="#F4F2F2" stroke="#3A3737"/>
<path d="M138.196 213.23H93.7253L93.4078 213.555L93.4077 213.555C91.2801 215.728 89.5917 218.308 88.4396 221.149C87.2875 223.99 86.6943 227.035 86.6943 230.111C86.6943 233.187 87.2875 236.232 88.4396 239.073C89.5917 241.914 91.2801 244.494 93.4077 246.667L93.4108 246.67L93.7278 247H138.199L136.297 245.05L138.196 213.23ZM138.196 213.23L136.297 215.172L136.297 215.172C132.42 219.137 130.244 224.511 130.244 230.111C130.244 235.711 132.42 241.084 136.296 245.05L138.196 213.23Z" fill="white" stroke="#3A3737"/>
<path d="M247.289 227.791H240.281C239.962 227.791 239.657 227.662 239.431 227.432C239.206 227.202 239.08 226.889 239.08 226.564C239.08 226.238 239.206 225.926 239.431 225.696C239.657 225.465 239.962 225.336 240.281 225.336H247.289C247.608 225.336 247.914 225.465 248.139 225.696C248.364 225.926 248.491 226.238 248.491 226.564C248.491 226.889 248.364 227.202 248.139 227.432C247.914 227.662 247.608 227.791 247.289 227.791Z" fill="#7D8488"/>
<path d="M231.11 227.791H165.993C165.674 227.791 165.369 227.662 165.143 227.432C164.918 227.202 164.792 226.889 164.792 226.564C164.792 226.238 164.918 225.926 165.143 225.696C165.369 225.465 165.674 225.336 165.993 225.336H231.11C231.429 225.336 231.734 225.465 231.96 225.696C232.185 225.926 232.311 226.238 232.311 226.564C232.311 226.889 232.185 227.202 231.96 227.432C231.734 227.662 231.429 227.791 231.11 227.791Z" fill="#7D8488"/>
<path d="M157.182 227.791H142.765C142.447 227.791 142.141 227.662 141.916 227.432C141.691 227.202 141.564 226.889 141.564 226.564C141.564 226.238 141.691 225.926 141.916 225.696C142.141 225.465 142.447 225.336 142.765 225.336H157.182C157.501 225.336 157.807 225.465 158.032 225.696C158.257 225.926 158.384 226.238 158.384 226.564C158.384 226.889 158.257 227.202 158.032 227.432C157.807 227.662 157.501 227.791 157.182 227.791Z" fill="#7D8488"/>
<path d="M247.289 238.194H185.616C185.297 238.194 184.992 238.064 184.766 237.834C184.541 237.604 184.415 237.292 184.415 236.966C184.415 236.64 184.541 236.328 184.766 236.098C184.992 235.868 185.297 235.738 185.616 235.738H247.289C247.608 235.738 247.913 235.868 248.139 236.098C248.364 236.328 248.49 236.64 248.49 236.966C248.49 237.292 248.364 237.604 248.139 237.834C247.913 238.064 247.608 238.194 247.289 238.194Z" fill="#7D8488"/>
<path d="M176.646 238.194H142.765C142.447 238.194 142.141 238.064 141.916 237.834C141.691 237.604 141.564 237.292 141.564 236.966C141.564 236.64 141.691 236.328 141.916 236.098C142.141 235.868 142.447 235.738 142.765 235.738H176.646C176.964 235.738 177.27 235.868 177.495 236.098C177.72 236.328 177.847 236.64 177.847 236.966C177.847 237.292 177.72 237.604 177.495 237.834C177.27 238.064 176.964 238.194 176.646 238.194Z" fill="#7D8488"/>
<path d="M124.019 181.645V151.984H254.316C253.241 161.836 253.256 171.798 254.362 181.645H124.019Z" fill="#F4F2F2" stroke="#3A3737"/>
<path d="M146.254 152.123H106.372L106.095 152.407L106.095 152.407C104.186 154.357 102.671 156.673 101.637 159.224C100.603 161.774 100.071 164.507 100.071 167.268C100.071 170.029 100.603 172.763 101.637 175.313C102.671 177.863 104.186 180.18 106.095 182.13L106.095 182.13L106.372 182.414H146.265L144.635 180.742L146.254 152.123ZM146.254 152.123L144.635 153.778L144.635 153.778C141.138 157.358 139.175 162.207 139.175 167.26C139.175 172.313 141.137 177.162 144.634 180.742L146.254 152.123Z" fill="#F4F2F2" stroke="#3A3737"/>
<path d="M244.566 163.884H238.255C237.968 163.884 237.693 163.767 237.49 163.56C237.287 163.353 237.173 163.072 237.173 162.779C237.173 162.634 237.201 162.49 237.256 162.356C237.31 162.222 237.39 162.1 237.49 161.997C237.59 161.895 237.71 161.813 237.841 161.758C237.972 161.702 238.113 161.674 238.255 161.674H244.566C244.708 161.674 244.849 161.702 244.98 161.758C245.111 161.813 245.23 161.895 245.331 161.997C245.431 162.1 245.511 162.222 245.565 162.356C245.619 162.49 245.647 162.634 245.647 162.779C245.647 163.072 245.533 163.353 245.331 163.56C245.128 163.767 244.853 163.884 244.566 163.884Z" fill="#7D8488"/>
<path d="M229.965 163.884H171.399C171.257 163.885 171.116 163.857 170.984 163.802C170.852 163.747 170.733 163.665 170.632 163.563C170.532 163.46 170.452 163.337 170.398 163.203C170.344 163.068 170.317 162.924 170.318 162.779C170.317 162.633 170.344 162.489 170.398 162.355C170.452 162.22 170.532 162.098 170.632 161.995C170.733 161.892 170.852 161.811 170.984 161.756C171.116 161.701 171.257 161.673 171.399 161.674H229.965C230.107 161.673 230.248 161.701 230.38 161.756C230.511 161.811 230.631 161.892 230.732 161.995C230.832 162.098 230.912 162.22 230.966 162.355C231.02 162.489 231.047 162.633 231.046 162.779C231.047 162.924 231.02 163.068 230.966 163.203C230.912 163.337 230.832 163.46 230.732 163.563C230.631 163.665 230.511 163.747 230.38 163.802C230.248 163.857 230.107 163.885 229.965 163.884Z" fill="#7D8488"/>
<path d="M163.47 163.884H150.494C150.352 163.885 150.211 163.857 150.079 163.802C149.948 163.747 149.828 163.665 149.727 163.563C149.627 163.46 149.547 163.337 149.493 163.203C149.439 163.068 149.412 162.924 149.413 162.779C149.412 162.633 149.439 162.489 149.493 162.355C149.547 162.22 149.627 162.098 149.727 161.995C149.828 161.892 149.948 161.811 150.079 161.756C150.211 161.701 150.352 161.673 150.494 161.674H163.47C163.612 161.673 163.753 161.701 163.885 161.756C164.016 161.811 164.136 161.892 164.237 161.995C164.337 162.098 164.417 162.22 164.471 162.355C164.525 162.489 164.552 162.633 164.551 162.779C164.552 162.924 164.525 163.068 164.471 163.203C164.417 163.337 164.337 163.46 164.237 163.563C164.136 163.665 164.016 163.747 163.885 163.802C163.753 163.857 163.612 163.885 163.47 163.884Z" fill="#7D8488"/>
<path d="M244.566 173.216H189.06C188.918 173.217 188.777 173.189 188.645 173.134C188.514 173.079 188.394 172.997 188.293 172.895C188.193 172.792 188.113 172.67 188.059 172.535C188.005 172.4 187.978 172.256 187.979 172.111C187.978 171.965 188.005 171.821 188.059 171.687C188.113 171.552 188.193 171.43 188.293 171.327C188.394 171.224 188.514 171.143 188.645 171.088C188.777 171.033 188.918 171.005 189.06 171.006H244.566C244.853 171.006 245.128 171.122 245.331 171.33C245.533 171.537 245.647 171.818 245.647 172.111C245.647 172.404 245.533 172.685 245.331 172.892C245.128 173.099 244.853 173.216 244.566 173.216Z" fill="#7D8488"/>
<path d="M180.946 173.215H150.51C150.369 173.218 150.228 173.193 150.096 173.14C149.964 173.087 149.844 173.008 149.742 172.908C149.64 172.808 149.558 172.687 149.502 172.555C149.445 172.422 149.415 172.279 149.413 172.134C149.412 171.989 149.439 171.845 149.493 171.71C149.547 171.576 149.627 171.453 149.727 171.351C149.828 171.248 149.948 171.166 150.079 171.111C150.211 171.056 150.352 171.028 150.494 171.029H180.93C181.073 171.028 181.214 171.056 181.345 171.111C181.477 171.166 181.597 171.248 181.697 171.351C181.798 171.453 181.878 171.576 181.932 171.71C181.986 171.845 182.013 171.989 182.012 172.134C182.008 172.421 181.894 172.694 181.695 172.896C181.496 173.098 181.227 173.213 180.946 173.215Z" fill="#7D8488"/>
<path d="M128.64 212.231V182.645H258.937C257.863 192.471 257.878 202.409 258.983 212.231H128.64Z" fill="#F4F2F2" stroke="#3A3737"/>
<path d="M110.736 212.655L110.736 212.655L110.732 212.652C108.823 210.701 107.308 208.385 106.274 205.835C105.24 203.284 104.708 200.551 104.708 197.79C104.708 195.029 105.24 192.295 106.274 189.745C107.308 187.195 108.823 184.879 110.732 182.928L110.732 182.928L110.736 182.925L111.004 182.645H150.891L149.264 184.307C147.53 186.078 146.154 188.181 145.216 190.494C144.277 192.807 143.795 195.286 143.795 197.79C143.795 200.293 144.277 202.772 145.216 205.086C146.154 207.399 147.529 209.501 149.264 211.272C149.264 211.272 149.264 211.272 149.264 211.272L150.891 212.935H111.004L110.736 212.655Z" fill="white" stroke="#3A3737"/>
<path d="M155.116 202.295H161.427C161.714 202.295 161.989 202.411 162.192 202.619C162.395 202.826 162.509 203.107 162.509 203.4C162.507 203.692 162.392 203.972 162.19 204.179C161.987 204.386 161.714 204.503 161.427 204.505H155.116C154.83 204.503 154.556 204.386 154.354 204.179C154.151 203.972 154.037 203.692 154.035 203.4C154.035 203.107 154.149 202.826 154.351 202.619C154.554 202.411 154.829 202.295 155.116 202.295Z" fill="#7D8488"/>
<path d="M169.717 202.295H228.282C228.425 202.294 228.566 202.322 228.697 202.377C228.829 202.432 228.949 202.513 229.049 202.616C229.15 202.719 229.23 202.841 229.284 202.976C229.338 203.11 229.365 203.255 229.364 203.4C229.364 203.545 229.336 203.689 229.281 203.823C229.227 203.957 229.147 204.079 229.047 204.181C228.947 204.284 228.827 204.365 228.696 204.421C228.565 204.476 228.424 204.505 228.282 204.505H169.717C169.575 204.505 169.434 204.476 169.303 204.421C169.172 204.365 169.053 204.284 168.952 204.181C168.852 204.079 168.772 203.957 168.718 203.823C168.664 203.689 168.636 203.545 168.636 203.4C168.635 203.255 168.662 203.11 168.716 202.976C168.77 202.841 168.849 202.719 168.95 202.616C169.051 202.513 169.17 202.432 169.302 202.377C169.434 202.322 169.575 202.294 169.717 202.295Z" fill="#7D8488"/>
<path d="M236.212 202.295H249.187C249.33 202.294 249.471 202.322 249.602 202.377C249.734 202.432 249.854 202.513 249.954 202.616C250.055 202.719 250.135 202.841 250.189 202.976C250.243 203.11 250.27 203.255 250.269 203.4C250.269 203.545 250.241 203.689 250.186 203.823C250.132 203.957 250.052 204.079 249.952 204.181C249.852 204.284 249.732 204.365 249.601 204.421C249.47 204.476 249.329 204.505 249.187 204.505H236.212C236.069 204.506 235.927 204.478 235.795 204.423C235.662 204.368 235.541 204.287 235.439 204.185C235.338 204.082 235.256 203.96 235.201 203.825C235.145 203.691 235.116 203.546 235.115 203.4C235.115 203.254 235.143 203.108 235.199 202.973C235.254 202.838 235.335 202.716 235.437 202.613C235.539 202.51 235.66 202.429 235.793 202.374C235.926 202.32 236.069 202.293 236.212 202.295Z" fill="#7D8488"/>
<path d="M155.116 192.965H210.622C210.764 192.964 210.905 192.992 211.037 193.047C211.168 193.102 211.288 193.183 211.389 193.286C211.489 193.389 211.569 193.511 211.623 193.646C211.677 193.78 211.704 193.924 211.703 194.07C211.703 194.215 211.675 194.359 211.621 194.493C211.566 194.627 211.487 194.749 211.386 194.851C211.286 194.954 211.167 195.035 211.035 195.091C210.904 195.146 210.764 195.175 210.622 195.175H155.116C154.83 195.173 154.556 195.056 154.354 194.849C154.151 194.642 154.037 194.362 154.035 194.07C154.035 193.777 154.149 193.496 154.351 193.288C154.554 193.081 154.829 192.965 155.116 192.965Z" fill="#7D8488"/>
<path d="M218.735 192.965H249.171C249.313 192.964 249.455 192.992 249.586 193.047C249.718 193.102 249.838 193.183 249.938 193.286C250.039 193.389 250.118 193.511 250.172 193.646C250.226 193.78 250.254 193.924 250.252 194.07C250.252 194.363 250.139 194.644 249.936 194.851C249.733 195.058 249.458 195.175 249.171 195.175H218.735C218.593 195.175 218.453 195.146 218.321 195.091C218.19 195.035 218.071 194.954 217.971 194.851C217.87 194.749 217.79 194.627 217.736 194.493C217.682 194.359 217.654 194.215 217.654 194.07C217.653 193.924 217.68 193.78 217.734 193.646C217.788 193.511 217.868 193.389 217.968 193.286C218.069 193.183 218.188 193.102 218.32 193.047C218.452 192.992 218.593 192.964 218.735 192.965Z" fill="#7D8488"/>
<path opacity="0.3" d="M46.71 116.277L53.0762 122.801" stroke="#3A3737" stroke-width="1.19744" stroke-linecap="round" stroke-linejoin="round"/>
<path opacity="0.3" d="M53.0762 116.277L46.71 122.801" stroke="#3A3737" stroke-width="1.19744" stroke-linecap="round" stroke-linejoin="round"/>
<path opacity="0.3" d="M313.056 96.7109L319.422 103.235" stroke="#3A3737" stroke-width="1.19744" stroke-linecap="round" stroke-linejoin="round"/>
<path opacity="0.3" d="M319.422 96.7109L313.056 103.235" stroke="#3A3737" stroke-width="1.19744" stroke-linecap="round" stroke-linejoin="round"/>
<path opacity="0.3" d="M130.115 49.1445L126.456 52.8906L130.115 56.6368L133.774 52.8906L130.115 49.1445Z" stroke="#3A3737" stroke-width="1.19744" stroke-linecap="round" stroke-linejoin="round"/>
<path opacity="0.3" d="M267.266 80L263.607 83.7461L267.266 87.4922L270.924 83.7461L267.266 80Z" stroke="#3A3737" stroke-width="1.19744" stroke-linecap="round" stroke-linejoin="round"/>
<path opacity="0.3" d="M48.6207 199.361L44.9619 203.107L48.6206 206.854L52.2794 203.107L48.6207 199.361Z" stroke="#3A3737" stroke-width="1.19744" stroke-linecap="round" stroke-linejoin="round"/>
<path opacity="0.3" d="M126.377 138.143L122.719 141.889L126.377 145.635L130.036 141.889L126.377 138.143Z" stroke="#3A3737" stroke-width="1.19744" stroke-linecap="round" stroke-linejoin="round"/>
<path opacity="0.3" d="M299.443 199.355L295.784 203.102L299.443 206.848L303.102 203.102L299.443 199.355Z" stroke="#3A3737" stroke-width="1.19744" stroke-linecap="round" stroke-linejoin="round"/>
<path opacity="0.3" d="M343.315 33.8613L339.656 37.6074L343.315 41.3536L346.973 37.6074L343.315 33.8613Z" stroke="#3A3737" stroke-width="1.19744" stroke-linecap="round" stroke-linejoin="round"/>
<path d="M27.1992 247.98H389.228" stroke="#3A3737" stroke-width="1.19744" stroke-miterlimit="10"/>
<path d="M306.28 226.851C305.283 225.603 302.455 225.825 301.149 226.346C301.035 226.391 299.345 227.306 299.366 227.328C298.922 227.362 298.445 227.4 297.92 227.45C296.955 227.561 295.872 227.689 294.696 227.911C293.428 228.138 292.175 228.44 290.941 228.815C289.556 229.224 288.21 229.762 286.921 230.424H286.878C287.203 230.091 288.097 229.137 288.156 229.059C289.007 227.911 289.999 225.176 289.099 223.867C288.943 223.652 288.745 223.474 288.518 223.343C288.291 223.211 288.039 223.13 287.779 223.105C287.519 223.079 287.257 223.11 287.01 223.194C286.762 223.278 286.534 223.415 286.341 223.595C285.496 224.338 285.29 225.72 285.355 226.796C285.426 228.005 286.634 230.324 286.726 230.507C285.43 231.208 284.181 231.998 282.988 232.87C282.289 233.375 281.601 233.908 280.918 234.446L281.46 233.847C282.31 232.704 283.296 229.963 282.397 228.66C282.242 228.444 282.045 228.264 281.817 228.132C281.59 228 281.338 227.918 281.077 227.892C280.817 227.867 280.555 227.898 280.307 227.983C280.059 228.068 279.831 228.206 279.639 228.388C278.799 229.126 278.588 230.513 278.653 231.583C278.718 232.654 279.71 234.668 279.975 235.195L279.195 235.822C277.954 236.837 276.713 237.852 275.473 238.812C275.034 239.15 274.59 239.466 274.145 239.788C274.395 239.527 274.595 239.3 274.622 239.267C275.473 238.124 276.464 235.383 275.565 234.074C275.409 233.859 275.211 233.681 274.983 233.549C274.756 233.418 274.504 233.337 274.244 233.312C273.984 233.287 273.722 233.318 273.474 233.404C273.227 233.489 272.999 233.627 272.807 233.808C271.962 234.546 271.756 235.932 271.821 237.003C271.886 238.074 272.78 239.893 273.094 240.52C272.634 240.831 272.168 241.142 271.707 241.424C271.388 241.608 271.09 241.813 270.759 241.979L269.795 242.49C269.172 242.795 268.527 243.111 267.915 243.388C267.487 243.588 267.075 243.766 266.663 243.943C267.102 243.61 267.947 242.944 268.012 242.883C268.868 241.97 269.482 240.847 269.795 239.622C269.896 239.527 269.987 239.421 270.066 239.305C270.222 239.094 270.334 238.851 270.393 238.592C270.453 238.334 270.459 238.066 270.412 237.805C270.364 237.543 270.264 237.295 270.118 237.076C269.972 236.857 269.782 236.672 269.562 236.532C268.196 235.733 265.634 236.981 264.593 237.952C264.534 238.007 263.938 238.706 263.569 239.15C263.748 238.856 263.921 238.568 264.111 238.262C264.474 237.658 264.815 237.048 265.195 236.387L265.704 235.4C265.877 235.078 266.024 234.712 266.186 234.363C266.555 233.547 266.885 232.698 267.199 231.85C267.714 232.171 269.567 233.281 270.613 233.414C271.658 233.547 273.018 233.414 273.793 232.61C273.982 232.425 274.131 232.201 274.23 231.953C274.328 231.705 274.375 231.439 274.366 231.171C274.357 230.904 274.294 230.641 274.179 230.4C274.064 230.16 273.902 229.947 273.701 229.775C272.471 228.776 269.757 229.608 268.586 230.407C268.511 230.457 267.736 231.128 267.319 231.517C267.503 231.001 267.692 230.485 267.86 229.958C268.353 228.427 268.803 226.868 269.264 225.309C269.405 224.832 269.551 224.36 269.692 223.883C269.876 224 272.049 225.376 273.224 225.548C274.265 225.681 275.624 225.548 276.399 224.743C276.588 224.558 276.736 224.335 276.835 224.087C276.934 223.839 276.98 223.573 276.972 223.306C276.964 223.039 276.901 222.776 276.787 222.536C276.674 222.295 276.512 222.081 276.313 221.908C275.077 220.904 272.363 221.742 271.192 222.541C271.106 222.596 269.99 223.562 269.719 223.822C270.033 222.779 270.358 221.736 270.721 220.727C271.199 219.36 271.766 218.028 272.417 216.738C272.504 216.788 274.768 218.23 275.966 218.402C277.006 218.541 278.371 218.402 279.146 217.598C279.335 217.413 279.484 217.189 279.583 216.941C279.681 216.694 279.728 216.427 279.719 216.16C279.71 215.892 279.647 215.629 279.532 215.389C279.418 215.148 279.255 214.935 279.054 214.763C277.824 213.765 275.104 214.597 273.939 215.396C273.864 215.446 273.008 216.183 272.612 216.538L272.542 216.483C273.231 215.202 274.031 213.986 274.931 212.849C275.413 212.217 275.917 211.64 276.415 211.091C276.811 211.407 278.626 212.816 279.666 213.077C280.707 213.338 282.056 213.354 282.917 212.633C283.125 212.47 283.296 212.265 283.421 212.029C283.546 211.794 283.621 211.535 283.641 211.268C283.662 211.001 283.627 210.733 283.54 210.481C283.452 210.228 283.314 209.998 283.134 209.804C282.018 208.694 279.227 209.194 277.976 209.859C277.911 209.893 277.261 210.336 276.789 210.664C277.022 210.42 277.25 210.164 277.477 209.937C278.312 209.072 279.103 208.334 279.861 207.685C280.284 207.319 280.669 206.997 281.032 206.703C281.573 206.803 283.773 207.174 284.824 206.908C285.875 206.642 287.067 206.032 287.506 204.989C287.618 204.746 287.678 204.482 287.683 204.214C287.688 203.947 287.638 203.681 287.536 203.434C287.433 203.187 287.281 202.965 287.09 202.783C286.898 202.601 286.67 202.462 286.423 202.376C284.922 201.893 282.684 203.679 281.871 204.856C281.806 204.955 280.885 206.67 280.918 206.675H280.95C280.593 206.958 280.214 207.23 279.807 207.596C279.065 208.234 278.225 208.955 277.364 209.815C276.429 210.72 275.546 211.679 274.72 212.689C273.787 213.814 272.955 215.023 272.233 216.3C272.235 216.317 272.235 216.333 272.233 216.35C272.33 215.889 272.558 214.586 272.569 214.486C272.661 213.049 272.027 210.225 270.553 209.626C270.308 209.534 270.046 209.496 269.786 209.515C269.525 209.533 269.272 209.608 269.041 209.733C268.81 209.859 268.608 210.033 268.448 210.244C268.287 210.455 268.172 210.698 268.11 210.958C267.806 212.067 268.375 213.327 269.009 214.181C269.724 215.152 271.978 216.4 272.157 216.505C271.452 217.822 270.835 219.186 270.309 220.588C270.001 221.404 269.713 222.252 269.432 223.073C269.507 222.668 269.567 222.313 269.567 222.258C269.665 220.827 269.025 217.997 267.557 217.398C267.312 217.306 267.05 217.268 266.79 217.287C266.529 217.305 266.275 217.38 266.045 217.505C265.814 217.631 265.612 217.805 265.452 218.016C265.291 218.227 265.176 218.47 265.113 218.73C264.81 219.839 265.379 221.099 266.013 221.953C266.647 222.807 268.554 223.933 269.063 224.222C268.955 224.544 268.852 224.865 268.749 225.187C268.256 226.735 267.774 228.282 267.254 229.78C267.069 230.335 266.869 230.829 266.674 231.345C266.733 230.984 266.788 230.685 266.788 230.64C266.88 229.203 266.246 226.374 264.778 225.781C264.532 225.689 264.27 225.651 264.009 225.669C263.748 225.687 263.494 225.762 263.263 225.887C263.032 226.013 262.83 226.187 262.669 226.398C262.508 226.609 262.392 226.852 262.329 227.112C262.025 228.221 262.599 229.475 263.233 230.335C263.867 231.195 265.59 232.205 266.192 232.554C265.969 233.076 265.753 233.597 265.52 234.091C265.352 234.429 265.216 234.762 265.027 235.089L264.485 236.06C264.127 236.665 263.759 237.292 263.401 237.874C263.152 238.279 262.908 238.662 262.659 239.05C262.849 238.523 263.201 237.491 263.201 237.386C263.504 235.982 263.288 233.087 261.928 232.271C261.699 232.143 261.446 232.066 261.186 232.044C260.926 232.023 260.664 232.057 260.418 232.146C260.172 232.234 259.947 232.374 259.757 232.557C259.567 232.74 259.417 232.962 259.316 233.209C258.85 234.246 259.229 235.589 259.728 236.537C260.27 237.575 262.231 239.111 262.475 239.311C262.068 239.943 261.662 240.565 261.272 241.136C260.075 242.906 259.002 244.37 258.178 245.457L259.121 245.951C259.912 244.842 260.925 243.405 262.041 241.674C262.464 241.025 262.897 240.326 263.336 239.605C264.065 239.924 264.812 240.196 265.574 240.42C265.536 241.635 266.284 243.86 266.381 244.148C265.699 244.448 265.032 244.736 264.393 244.992C262.832 245.635 261.44 246.156 260.291 246.567L261.527 247.21C262.48 246.833 263.569 246.389 264.75 245.874C265.444 245.574 266.186 245.236 266.918 244.881C267.086 245.141 268.462 247.244 269.442 247.871C270.331 248.425 271.61 248.908 272.655 248.503C272.903 248.416 273.129 248.277 273.321 248.094C273.512 247.912 273.664 247.69 273.766 247.444C273.868 247.197 273.919 246.932 273.914 246.664C273.909 246.396 273.85 246.133 273.739 245.89C273.029 244.448 270.217 244.043 268.83 244.265C268.749 244.265 267.877 244.526 267.329 244.686C267.638 244.542 267.936 244.403 268.25 244.248C268.879 243.949 269.491 243.627 270.158 243.288L271.111 242.734C271.431 242.562 271.751 242.34 272.076 242.14C272.818 241.669 273.549 241.147 274.275 240.609C274.53 241.164 275.478 243.144 276.28 243.849C277.082 244.553 278.279 245.213 279.363 244.958C279.62 244.91 279.865 244.807 280.08 244.656C280.296 244.505 280.479 244.308 280.616 244.08C280.753 243.852 280.841 243.597 280.875 243.332C280.91 243.066 280.889 242.796 280.815 242.54C280.327 241.008 277.613 240.176 276.21 240.176C276.118 240.176 275.126 240.298 274.584 240.376C275.012 240.049 275.446 239.721 275.874 239.377C277.109 238.384 278.328 237.336 279.547 236.293L280.674 235.35C280.766 235.55 281.839 237.924 282.738 238.712C283.529 239.411 284.738 240.076 285.821 239.821C286.078 239.774 286.323 239.671 286.538 239.521C286.754 239.37 286.937 239.174 287.074 238.947C287.211 238.719 287.299 238.464 287.334 238.199C287.368 237.934 287.347 237.665 287.273 237.408C286.786 235.877 284.071 235.039 282.663 235.045C282.56 235.045 281.108 235.217 280.745 235.283C281.568 234.59 282.402 233.908 283.248 233.27C284.384 232.399 285.575 231.606 286.813 230.895C286.851 230.99 287.967 233.469 288.882 234.279C289.679 234.978 290.882 235.644 291.965 235.389C292.222 235.341 292.467 235.239 292.683 235.088C292.898 234.938 293.081 234.742 293.218 234.514C293.355 234.287 293.443 234.032 293.478 233.767C293.512 233.502 293.492 233.232 293.417 232.976C292.93 231.445 290.215 230.607 288.812 230.612C288.72 230.612 287.615 230.746 287.089 230.818C287.082 230.787 287.073 230.758 287.062 230.729C288.328 230.055 289.65 229.498 291.012 229.065C291.754 228.81 292.485 228.615 293.179 228.438C293.341 228.92 294.1 231.123 294.848 231.944C295.595 232.765 296.684 233.525 297.79 233.408C298.049 233.39 298.301 233.316 298.531 233.191C298.76 233.067 298.962 232.894 299.122 232.685C299.283 232.477 299.399 232.236 299.464 231.978C299.528 231.72 299.539 231.452 299.496 231.189C299.171 229.608 296.565 228.471 295.162 228.321C295.086 228.321 294.306 228.321 293.737 228.321C294.057 228.249 294.387 228.166 294.701 228.099C295.866 227.855 296.944 227.7 297.903 227.572C298.445 227.506 298.944 227.456 299.41 227.412C299.811 227.8 301.436 229.353 302.449 229.725C303.462 230.097 304.795 230.28 305.7 229.631C305.928 229.498 306.126 229.317 306.281 229.101C306.436 228.884 306.544 228.637 306.599 228.374C306.653 228.112 306.653 227.84 306.598 227.578C306.543 227.315 306.435 227.068 306.28 226.851Z" fill="#3A3737"/>
<path opacity="0.3" d="M305.764 227.213C304.767 225.964 301.939 226.186 300.633 226.708C300.519 226.752 298.829 227.667 298.85 227.69C298.406 227.723 297.929 227.762 297.404 227.812C296.439 227.923 295.356 228.05 294.18 228.272C292.912 228.499 291.659 228.801 290.425 229.176C289.04 229.585 287.694 230.124 286.405 230.785H286.362C286.687 230.452 287.581 229.498 287.64 229.42C288.491 228.272 289.482 225.537 288.583 224.228C288.427 224.014 288.229 223.835 288.002 223.704C287.774 223.573 287.523 223.492 287.263 223.466C287.003 223.441 286.741 223.471 286.493 223.555C286.246 223.64 286.018 223.776 285.825 223.956C284.98 224.7 284.774 226.081 284.839 227.157C284.91 228.366 286.118 230.685 286.21 230.868C284.914 231.57 283.665 232.359 282.471 233.232C281.773 233.736 281.084 234.269 280.402 234.807L280.944 234.208C281.794 233.065 282.78 230.325 281.881 229.021C281.726 228.805 281.529 228.625 281.301 228.493C281.074 228.361 280.822 228.279 280.561 228.254C280.301 228.228 280.038 228.259 279.791 228.344C279.543 228.43 279.315 228.568 279.123 228.749C278.283 229.487 278.072 230.874 278.137 231.945C278.202 233.015 279.194 235.029 279.459 235.556L278.679 236.183C277.438 237.198 276.197 238.213 274.957 239.173C274.518 239.511 274.073 239.828 273.629 240.149C273.878 239.889 274.079 239.661 274.106 239.628C274.957 238.485 275.948 235.745 275.049 234.435C274.893 234.221 274.695 234.042 274.467 233.911C274.24 233.78 273.988 233.699 273.728 233.674C273.468 233.649 273.205 233.68 272.958 233.765C272.71 233.85 272.483 233.988 272.291 234.169C271.446 234.907 271.24 236.294 271.305 237.364C271.37 238.435 272.264 240.255 272.578 240.882C272.118 241.192 271.652 241.503 271.191 241.786C270.871 241.969 270.573 242.174 270.243 242.341L269.279 242.851C268.655 243.156 268.011 243.472 267.398 243.75C266.97 243.949 266.559 244.127 266.147 244.304C266.586 243.972 267.431 243.306 267.496 243.245C268.352 242.331 268.966 241.208 269.279 239.983C269.38 239.888 269.471 239.782 269.549 239.667C269.706 239.455 269.818 239.212 269.877 238.954C269.937 238.695 269.943 238.427 269.896 238.166C269.848 237.905 269.748 237.657 269.602 237.438C269.455 237.218 269.266 237.033 269.046 236.893C267.68 236.094 265.117 237.342 264.077 238.313C264.018 238.369 263.422 239.068 263.053 239.511C263.232 239.217 263.405 238.929 263.595 238.624C263.958 238.019 264.299 237.409 264.679 236.749L265.188 235.761C265.361 235.439 265.508 235.073 265.67 234.724C266.039 233.908 266.369 233.06 266.683 232.211C267.198 232.533 269.051 233.642 270.097 233.775C271.142 233.908 272.502 233.775 273.277 232.971C273.466 232.786 273.615 232.562 273.713 232.314C273.812 232.066 273.859 231.8 273.85 231.532C273.841 231.265 273.778 231.002 273.663 230.762C273.548 230.521 273.385 230.308 273.185 230.136C271.955 229.138 269.241 229.97 268.07 230.769C267.994 230.818 267.22 231.49 266.802 231.878C266.987 231.362 267.176 230.846 267.344 230.319C267.837 228.788 268.287 227.229 268.748 225.67C268.888 225.193 269.035 224.722 269.176 224.245C269.36 224.361 271.532 225.737 272.708 225.909C273.748 226.042 275.108 225.909 275.883 225.105C276.072 224.919 276.22 224.696 276.319 224.448C276.417 224.201 276.464 223.935 276.456 223.667C276.448 223.4 276.385 223.138 276.271 222.897C276.158 222.656 275.996 222.442 275.796 222.27C274.561 221.266 271.847 222.103 270.676 222.902C270.59 222.958 269.474 223.923 269.203 224.184C269.517 223.141 269.842 222.098 270.205 221.088C270.683 219.722 271.25 218.389 271.901 217.1C271.988 217.149 274.252 218.592 275.45 218.764C276.49 218.902 277.855 218.764 278.63 217.959C278.819 217.774 278.968 217.551 279.066 217.303C279.165 217.055 279.212 216.788 279.203 216.521C279.194 216.253 279.131 215.991 279.016 215.75C278.901 215.51 278.739 215.296 278.538 215.125C277.308 214.126 274.588 214.958 273.423 215.757C273.347 215.807 272.491 216.545 272.096 216.9L272.025 216.844C272.715 215.563 273.515 214.347 274.415 213.211C274.897 212.578 275.401 212.001 275.899 211.452C276.295 211.768 278.11 213.177 279.15 213.438C280.19 213.699 281.54 213.716 282.401 212.994C282.608 212.832 282.78 212.626 282.905 212.391C283.03 212.155 283.105 211.896 283.125 211.629C283.145 211.362 283.111 211.094 283.023 210.842C282.936 210.59 282.798 210.359 282.618 210.165C281.502 209.056 278.711 209.555 277.46 210.221C277.395 210.254 276.745 210.698 276.273 211.025C276.506 210.781 276.734 210.526 276.961 210.298C277.796 209.433 278.587 208.695 279.345 208.046C279.768 207.68 280.153 207.358 280.516 207.064C281.057 207.164 283.257 207.536 284.308 207.269C285.359 207.003 286.551 206.393 286.99 205.35C287.102 205.108 287.162 204.844 287.167 204.576C287.172 204.308 287.122 204.042 287.02 203.795C286.917 203.549 286.765 203.327 286.573 203.144C286.382 202.962 286.154 202.823 285.907 202.737C284.406 202.254 282.168 204.041 281.355 205.217C281.29 205.317 280.369 207.031 280.402 207.036H280.434C280.077 207.319 279.697 207.591 279.291 207.957C278.549 208.595 277.709 209.316 276.848 210.176C275.913 211.081 275.03 212.041 274.204 213.05C273.271 214.175 272.439 215.384 271.717 216.661C271.719 216.678 271.719 216.695 271.717 216.711C271.814 216.251 272.042 214.947 272.053 214.847C272.145 213.41 271.511 210.587 270.037 209.988C269.792 209.896 269.53 209.858 269.27 209.876C269.009 209.895 268.755 209.969 268.525 210.095C268.294 210.22 268.092 210.394 267.932 210.605C267.771 210.816 267.656 211.059 267.593 211.319C267.29 212.429 267.859 213.688 268.493 214.542C269.208 215.513 271.462 216.761 271.641 216.867C270.936 218.184 270.319 219.548 269.793 220.949C269.484 221.765 269.197 222.614 268.916 223.435C268.991 223.03 269.051 222.675 269.051 222.619C269.148 221.188 268.509 218.359 267.041 217.76C266.796 217.668 266.534 217.63 266.274 217.648C266.013 217.667 265.759 217.741 265.529 217.867C265.298 217.992 265.096 218.166 264.936 218.377C264.775 218.588 264.66 218.831 264.597 219.091C264.294 220.201 264.863 221.46 265.497 222.314C266.131 223.168 268.038 224.295 268.547 224.583C268.439 224.905 268.336 225.227 268.233 225.548C267.74 227.096 267.258 228.644 266.737 230.142C266.553 230.696 266.353 231.19 266.158 231.706C266.217 231.345 266.271 231.046 266.271 231.002C266.364 229.565 265.73 226.736 264.261 226.142C264.016 226.05 263.754 226.012 263.493 226.03C263.232 226.049 262.978 226.123 262.747 226.249C262.516 226.374 262.313 226.548 262.152 226.759C261.991 226.97 261.876 227.213 261.812 227.473C261.509 228.583 262.083 229.837 262.717 230.696C263.351 231.556 265.074 232.566 265.676 232.915C265.453 233.437 265.237 233.958 265.004 234.452C264.836 234.79 264.7 235.123 264.511 235.451L263.969 236.421C263.611 237.026 263.243 237.653 262.885 238.235C262.636 238.64 262.392 239.023 262.143 239.411C262.333 238.884 262.685 237.853 262.685 237.747C262.988 236.344 262.771 233.448 261.412 232.632C261.183 232.505 260.93 232.427 260.67 232.406C260.41 232.384 260.148 232.419 259.902 232.507C259.656 232.595 259.431 232.736 259.241 232.919C259.051 233.102 258.901 233.324 258.8 233.57C258.334 234.607 258.713 235.95 259.212 236.898C259.754 237.936 261.715 239.473 261.959 239.672C261.552 240.305 261.146 240.926 260.756 241.497C259.559 243.267 258.486 244.732 257.662 245.819L258.605 246.313C259.396 245.203 260.409 243.766 261.525 242.035C261.948 241.386 262.381 240.687 262.82 239.966C263.549 240.285 264.296 240.557 265.058 240.782C265.02 241.997 265.768 244.221 265.865 244.51C265.182 244.809 264.516 245.098 263.877 245.353C262.316 245.996 260.924 246.518 259.775 246.928L261.011 247.572C261.964 247.195 263.053 246.751 264.234 246.235C264.928 245.935 265.67 245.597 266.402 245.242C266.569 245.503 267.946 247.605 268.926 248.232C269.815 248.787 271.094 249.269 272.139 248.864C272.387 248.777 272.613 248.638 272.805 248.456C272.996 248.273 273.148 248.052 273.25 247.805C273.352 247.559 273.402 247.293 273.398 247.025C273.393 246.758 273.334 246.494 273.223 246.252C272.513 244.809 269.701 244.404 268.314 244.626C268.233 244.626 267.361 244.887 266.813 245.048C267.122 244.903 267.42 244.765 267.734 244.609C268.363 244.31 268.975 243.988 269.642 243.65L270.595 243.095C270.915 242.923 271.234 242.701 271.56 242.501C272.302 242.03 273.033 241.508 273.759 240.97C274.014 241.525 274.962 243.506 275.764 244.21C276.566 244.915 277.763 245.575 278.847 245.32C279.104 245.271 279.349 245.168 279.564 245.017C279.78 244.866 279.963 244.67 280.099 244.442C280.236 244.214 280.325 243.958 280.359 243.693C280.394 243.428 280.373 243.158 280.299 242.901C279.811 241.37 277.097 240.538 275.693 240.538C275.601 240.538 274.61 240.66 274.068 240.737C274.496 240.41 274.93 240.083 275.358 239.739C276.593 238.746 277.812 237.697 279.031 236.654L280.158 235.711C280.25 235.911 281.323 238.285 282.222 239.073C283.013 239.772 284.222 240.438 285.305 240.183C285.562 240.135 285.807 240.033 286.022 239.882C286.238 239.731 286.421 239.536 286.558 239.308C286.695 239.08 286.783 238.826 286.818 238.561C286.852 238.295 286.831 238.026 286.757 237.769C286.27 236.238 283.555 235.401 282.146 235.406C282.043 235.406 280.591 235.578 280.228 235.645C281.052 234.951 281.886 234.269 282.732 233.631C283.868 232.76 285.059 231.967 286.297 231.257C286.335 231.351 287.451 233.831 288.366 234.641C289.163 235.34 290.366 236.005 291.449 235.75C291.706 235.703 291.951 235.6 292.166 235.45C292.382 235.299 292.565 235.103 292.702 234.876C292.839 234.648 292.927 234.393 292.962 234.128C292.996 233.863 292.975 233.593 292.901 233.337C292.414 231.806 289.699 230.968 288.296 230.974C288.204 230.974 287.098 231.107 286.573 231.179C286.566 231.149 286.557 231.119 286.546 231.09C287.812 230.417 289.133 229.86 290.496 229.426C291.238 229.171 291.969 228.977 292.663 228.799C292.825 229.282 293.584 231.484 294.332 232.305C295.079 233.126 296.168 233.886 297.274 233.77C297.533 233.751 297.785 233.677 298.015 233.552C298.244 233.428 298.446 233.256 298.606 233.047C298.767 232.838 298.883 232.597 298.948 232.339C299.012 232.082 299.023 231.813 298.98 231.551C298.655 229.97 296.049 228.832 294.646 228.683C294.57 228.683 293.79 228.683 293.221 228.683C293.541 228.611 293.871 228.527 294.185 228.461C295.35 228.217 296.428 228.061 297.387 227.934C297.929 227.867 298.428 227.817 298.894 227.773C299.295 228.161 300.92 229.715 301.933 230.086C302.946 230.458 304.279 230.641 305.184 229.992C305.412 229.859 305.61 229.679 305.765 229.462C305.919 229.245 306.028 228.998 306.083 228.735C306.137 228.473 306.137 228.201 306.082 227.939C306.027 227.677 305.919 227.429 305.764 227.213Z" fill="#3A3737"/>
<path d="M356.632 126.231C356.632 126.231 358.129 123.979 358.981 124.621C359.833 125.264 359.768 126.309 358.588 127.918C357.407 129.527 356.309 128.158 356.309 128.158" fill="white"/>
<path d="M356.632 126.231C356.632 126.231 358.129 123.979 358.981 124.621C359.833 125.264 359.768 126.309 358.588 127.918C357.407 129.527 356.309 128.158 356.309 128.158" stroke="#0C0403" stroke-width="1.19744" stroke-miterlimit="10"/>
<path d="M360.373 184.625L365.536 182.055" stroke="#0C0403" stroke-width="1.19744" stroke-miterlimit="10"/>
<path d="M353.801 119.394C353.801 119.394 353.249 121.322 352.626 121.887C352.003 122.451 350.741 122.049 350.347 122.769C349.953 123.49 350.582 125.171 350.582 125.171C350.582 125.171 350.506 129.435 350.423 130.318C350.341 131.201 351.839 131.687 352.391 131.765C352.943 131.843 355.328 132.408 355.328 132.408L355.011 137.212L362.165 136.809C362.165 136.809 361.46 132.786 361.618 131.098C361.777 129.411 362.952 128.366 363.034 126.432C363.116 124.499 356.949 118.187 353.801 119.394Z" fill="white" stroke="#3A3737" stroke-width="1.19744" stroke-miterlimit="10"/>
<path d="M367.41 118.093C367.41 118.093 364.185 115.601 363.005 114.796C361.824 113.991 355.216 113.991 353.801 114.232C352.385 114.472 352.544 116.964 352.937 118.495C353.331 120.027 354.981 122.837 354.981 122.837C355.105 123.366 355.291 123.878 355.533 124.362C355.86 125.014 356.426 125.506 357.108 125.732C357.108 125.732 358.365 130.392 359.621 131.521C360.878 132.649 361.9 132.884 362.218 132.806C362.535 132.728 367.016 128.464 369.219 124.362C371.421 120.261 367.41 118.093 367.41 118.093Z" fill="#9656A1" stroke="#3A3737" stroke-width="1.19744" stroke-miterlimit="10"/>
<path d="M366.541 118.43C368.349 117.288 370.522 116.913 372.597 117.385C376.062 118.189 378.811 121.246 378.259 125.912C377.707 130.578 376.215 132.584 376.215 132.584C374.642 132.552 373.072 132.418 371.516 132.181C369.96 131.97 368.43 131.592 366.952 131.052C366.952 131.052 371.028 122.453 366.541 118.43Z" fill="#9656A1" stroke="#3A3737" stroke-width="1.19744" stroke-miterlimit="10"/>
<path d="M353.578 138.048C353.578 138.048 357.936 135.73 360.374 135.73C362.811 135.73 369.607 139.652 370.999 140.811C372.391 141.97 372.567 142.612 372.567 142.612L375.269 162.388C376.198 164.38 376.794 166.517 377.031 168.711C377.289 172.002 380.426 180.643 380.426 180.643C381.603 181.485 382.824 182.259 384.085 182.961C385.226 183.553 386.099 184.573 386.523 185.808C386.699 186.703 385.653 186.078 385.219 185.718C384.156 185.053 382.966 184.629 381.73 184.475C379.815 184.114 379.116 184.03 378.423 182.517C378 181.706 377.622 180.872 377.289 180.019C376.943 179.04 372.414 168.885 371.539 167.018C370.664 165.15 370.147 161.673 369.624 160.874C369.102 160.076 367.792 154.551 367.792 154.551C367.792 154.551 366.752 161.493 366.664 162.207C366.576 162.922 372.931 173.785 371.892 179.929C370.852 186.072 367.445 206.472 367.445 207.36C367.445 208.249 368.232 217.161 367.622 220.632C367.011 224.103 366.576 243.53 366.576 243.53C366.576 243.53 367.011 247.271 366.752 247.361C366.107 247.586 365.418 247.648 364.744 247.541C363.874 247.361 358.911 247.271 358.212 247.181C357.513 247.091 358.3 245.758 359.346 245.313C360.391 244.869 362.283 242.377 362.482 241.926C362.682 241.476 361.172 225.796 360.65 219.653C360.127 213.51 359.434 203.979 359.522 201.571C359.61 199.163 360.391 184.649 360.391 184.649L348.368 208.255C348.147 210.767 347.553 213.229 346.606 215.557C345.038 219.473 337.543 243.355 337.208 243.974C336.874 244.593 337.208 245.776 336.944 246.472C336.68 247.169 336.944 247.715 336.421 247.805C335.899 247.895 323.969 247.805 323.969 247.805C323.849 247.604 323.809 247.362 323.857 247.131C323.905 246.9 324.038 246.696 324.228 246.562C324.927 246.112 328.151 244.334 329.802 243.355C331.452 242.377 333.114 241.842 333.725 240.059C334.336 238.275 339.211 208.609 339.91 206.472C340.609 204.334 348.098 176.103 348.098 176.103C348 173.4 348.057 170.693 348.268 167.996C348.621 165.324 349.055 162.832 349.055 162.478C349.055 162.123 348.791 154.461 348.791 154.461L345.484 163.901C345.275 165.207 344.863 166.47 344.262 167.642C343.217 169.78 334.771 183.496 334.506 183.76C334.242 184.024 333.549 184.36 332.157 184.03C330.765 183.7 328.932 182.961 328.674 182.961C327.873 183.143 327.049 183.202 326.231 183.135C325.185 182.961 324.228 182.691 324.839 182.601L326.842 182.337C327.81 181.774 328.839 181.329 329.908 181.01C330.983 180.896 332.07 180.984 333.114 181.268C333.114 181.268 335.987 173.341 337.226 170.224C338.465 167.108 339.928 162.117 340.163 161.853C340.398 161.589 344.168 149.651 344.691 147.603C345.214 145.555 345.825 142.528 346.348 141.543C346.87 140.559 353.578 138.048 353.578 138.048Z" fill="white" stroke="#3A3737" stroke-width="1.19744" stroke-miterlimit="10"/>
<path d="M333.72 240.036C334.307 238.235 339.205 208.587 339.904 206.449C340.603 204.311 348.092 176.081 348.092 176.081C348.092 176.081 348.057 174.982 348.051 173.535C348.973 173.781 351.323 174.219 356.738 174.508C362.43 174.808 368.168 173.216 370.835 172.346C371.692 175.018 372.238 177.75 371.874 179.906C370.829 186.056 367.428 206.449 367.428 207.338C367.428 208.227 368.215 217.138 367.604 220.609C366.993 224.08 366.559 243.507 366.559 243.507C366.559 243.507 366.682 244.558 366.758 245.561C365.178 245.705 363.093 245.531 362.435 244.228C362.148 243.753 361.991 243.207 361.983 242.648C362.168 242.417 362.329 242.168 362.465 241.904C362.635 241.459 361.155 225.774 360.632 219.631C360.109 213.487 359.416 203.957 359.504 201.549C359.593 199.141 360.374 184.626 360.374 184.626L348.351 208.233C348.13 210.744 347.535 213.207 346.589 215.535C345.02 219.45 337.526 243.333 337.191 243.952C337.084 244.18 337.029 244.431 337.032 244.684C336.938 244.707 336.841 244.719 336.744 244.72C336.022 244.72 334.982 244.15 333.937 243.411C333.351 242.945 332.87 242.355 332.527 241.682C333.072 241.263 333.486 240.691 333.72 240.036Z" fill="#9656A1" stroke="#3A3737" stroke-width="1.19744" stroke-miterlimit="10"/>
<path d="M348.262 167.972C348.614 165.3 349.049 162.808 349.049 162.454C349.049 162.099 348.785 154.437 348.785 154.437L346.189 161.841C344.667 161.463 341.877 160.748 340.709 160.364C341.83 157.061 344.28 149.206 344.691 147.579C345.214 145.531 345.824 142.504 346.347 141.519C346.87 140.535 353.578 138.048 353.578 138.048C353.578 138.048 357.936 135.73 360.373 135.73C362.811 135.73 369.607 139.652 370.999 140.811C372.391 141.97 372.567 142.612 372.567 142.612L375.04 160.706L369.971 161.805C369.888 161.48 369.765 161.168 369.607 160.874C369.084 160.07 367.774 154.551 367.774 154.551C367.774 154.551 366.734 161.493 366.646 162.207C366.582 162.706 369.659 168.146 371.169 173.473C369.219 174.764 364.749 177.022 357.76 176.638C352.749 176.362 349.777 175.821 348.074 175.365C347.989 172.899 348.052 170.43 348.262 167.972Z" fill="white" stroke="#3A3737" stroke-width="1.19744" stroke-miterlimit="10"/>
<path d="M367.779 154.526L370.393 145.17" stroke="#0C0403" stroke-width="1.19744" stroke-miterlimit="10"/>
<path d="M348.791 154.437L351.927 147.225" stroke="#0C0403" stroke-width="1.19744" stroke-miterlimit="10"/>
<path d="M356.725 154.576C356.336 154.837 355.923 155.059 355.492 155.237" stroke="#0C0403" stroke-width="1.19744" stroke-miterlimit="10"/>
<path d="M362.899 149.717C362.899 149.717 360.855 151.518 358.787 153.098" stroke="#0C0403" stroke-width="1.19744" stroke-miterlimit="10"/>
<path d="M359.069 154.791L355.668 156.839" stroke="#0C0403" stroke-width="1.19744" stroke-miterlimit="10"/>
<path d="M38.3085 168.446C38.9912 170.296 39.8469 172.073 40.8635 173.755C42.5433 176.535 44.7812 182.162 44.7812 182.162L45.022 176.854L42.4611 166.717L38.3085 168.446Z" fill="white" stroke="#0C0403" stroke-width="1.19744" stroke-miterlimit="10"/>
<path d="M43.5181 170.926C42.6497 171.284 41.7234 171.474 40.7869 171.484C40.3378 171.448 39.8955 171.351 39.4712 171.196C39.0315 170.308 38.6393 169.395 38.2965 168.464L42.4491 166.746L43.5181 170.926Z" fill="#92E3A9" stroke="#0C0403" stroke-width="1.19744" stroke-miterlimit="10"/>
<path d="M37.6684 144.191C37.326 146.049 37.192 147.941 37.269 149.83C37.3453 153.343 36.8696 159.312 36.6816 162.495C36.4937 165.678 35.8828 167.239 37.3218 168.542C38.7609 169.846 40.0413 170.182 41.3981 170.014C42.7549 169.846 43.7476 169.281 43.7476 168.813C43.7476 168.344 42.7079 160.724 41.9855 154.923C41.263 149.122 40.382 147.566 39.7476 146.581C39.1133 145.597 38.0678 144.191 37.6684 144.191Z" fill="white" stroke="#0C0403" stroke-width="1.19744" stroke-miterlimit="10"/>
<path d="M68.5626 177.244C68.5626 177.244 70.2601 181.532 69.6199 184.45C68.9796 187.369 67.4643 192.029 67.4643 192.029L63.8697 234.918C63.8697 234.918 64.6391 236.888 64.3807 237.921C64.1846 238.96 64.0571 240.011 63.9989 241.067C63.9989 241.067 67.9753 244.742 69.0031 245.661C69.2875 245.857 69.4862 246.158 69.5575 246.501C69.6287 246.844 69.5669 247.202 69.3849 247.499H57.9609C57.9609 247.499 57.1914 247.241 57.1914 245.925C57.1914 244.61 57.4499 242.25 57.4499 242.25C56.9901 241.063 56.6459 239.832 56.422 238.575C56.2928 237.266 55.911 237.134 56.422 234.245C56.933 231.357 55.7818 190.408 55.7818 190.408L50.0022 233.687C50.0022 233.687 51.2885 235.921 50.7717 236.689C50.2548 237.458 48.851 242.466 48.851 242.466C48.851 242.466 52.058 246.532 51.9287 247.06C51.7995 247.589 41.6207 247.114 41.6207 247.114C41.6207 247.114 41.1038 247.114 41.3622 244.881C41.6207 242.647 41.8732 241.992 41.8732 241.602C41.8732 241.211 41.3622 237.927 41.6207 236.744C41.8791 235.561 41.8732 237.008 42.3901 233.2C42.907 229.393 44.8276 187.033 44.8276 186.504C44.8276 186.504 43.6529 179.388 43.6529 177.448C43.6508 176.315 43.9296 175.199 44.4635 174.206C44.4635 174.206 54.0549 176.007 57.1327 175.22C60.2104 174.434 65.1149 173.785 65.1149 173.785L68.5626 177.244Z" fill="#9656A1" stroke="#0C0403" stroke-width="1.19744" stroke-miterlimit="10"/>
<path d="M58.4076 137.686C58.4076 137.686 64.4867 141.037 64.2459 142.262C64.0051 143.487 64.7216 170.21 65.121 172.582C65.5204 174.954 60.6395 182.412 57.0449 183.638C53.4503 184.863 51.7587 183.908 49.9027 182.827C48.0466 181.746 44.3404 177.488 43.7002 175.525C43.1501 173.727 42.8805 171.853 42.9014 169.97C42.9014 168.414 41.7796 168.33 41.3038 160.896C40.8281 153.461 38.5844 147.654 38.5844 146.592C38.5844 145.529 36.188 143.649 37.1453 141.523C38.1027 139.397 38.185 139.403 41.5446 138.34C44.9043 137.277 50.4959 134.99 58.4076 137.686Z" fill="white" stroke="#0C0403" stroke-width="1.19744" stroke-miterlimit="10"/>
<path d="M46.8019 174.453C54.0616 178.849 62.3257 173.654 62.3257 173.654" stroke="#0C0403" stroke-width="1.19744" stroke-miterlimit="10"/>
<path d="M43.7824 171.93C44.3227 172.532 44.9122 173.087 45.5444 173.587" stroke="#0C0403" stroke-width="1.19744" stroke-miterlimit="10"/>
<path d="M51.6933 161.84C52.1048 162.626 52.5865 163.372 53.1323 164.068" stroke="#0C0403" stroke-width="1.19744" stroke-miterlimit="10"/>
<path d="M47.9358 150.762C48.621 153.988 49.6043 157.141 50.8726 160.178" stroke="#0C0403" stroke-width="1.19744" stroke-miterlimit="10"/>
<path d="M57.4504 116.027C57.4504 116.027 58.6251 118.237 58.7308 119.3C58.8365 120.363 58.9657 121.75 59.7704 122.074C60.5751 122.399 61.8438 122.897 61.6852 123.876C61.5747 124.486 61.2978 125.053 60.8864 125.509C60.8864 125.509 60.2462 130.914 59.1243 131.232C58.0025 131.551 55.6002 131.232 55.6002 131.232L55.7588 136.541L47.6885 134.337C47.6885 134.337 48.0879 131.719 47.6885 130.247C47.4121 129.098 46.9495 128.004 46.32 127.011C46.0028 126.686 44.7224 124.639 47.2832 120.471C49.8441 116.303 55.9291 114.478 57.4504 116.027Z" fill="white" stroke="#0C0403" stroke-width="1.19744" stroke-miterlimit="10"/>
<mask id="path-119-inside-1_11682_87592" fill="white">
<path d="M58.1076 121.539C58.2604 121.959 58.5247 122.254 58.695 122.188C58.8653 122.121 58.8653 121.731 58.695 121.311C58.5247 120.89 58.2839 120.596 58.1076 120.656C57.9314 120.716 57.9549 121.113 58.1076 121.539Z"/>
</mask>
<path d="M58.1076 121.539C58.2604 121.959 58.5247 122.254 58.695 122.188C58.8653 122.121 58.8653 121.731 58.695 121.311C58.5247 120.89 58.2839 120.596 58.1076 120.656C57.9314 120.716 57.9549 121.113 58.1076 121.539Z" fill="#021832"/>
<path d="M58.1076 121.539L56.9822 121.948L56.9803 121.943L58.1076 121.539ZM59.2331 121.13C59.27 121.232 59.3038 121.266 59.2833 121.243C59.2755 121.234 59.2104 121.161 59.0766 121.096C58.9376 121.029 58.6277 120.929 58.262 121.071L59.128 123.304C58.6772 123.479 58.2703 123.367 58.0291 123.25C57.7931 123.135 57.6204 122.975 57.5061 122.848C57.2727 122.59 57.098 122.267 56.9822 121.948L59.2331 121.13ZM58.262 121.071C57.9031 121.21 57.7403 121.486 57.6813 121.631C57.625 121.77 57.6253 121.869 57.6253 121.882C57.6253 121.915 57.6282 121.866 57.5852 121.76L59.8048 120.861C59.9322 121.175 60.0202 121.533 60.0202 121.882C60.0202 122.053 59.9993 122.288 59.9003 122.532C59.7987 122.783 59.5721 123.132 59.128 123.304L58.262 121.071ZM57.5852 121.76C57.5303 121.625 57.4886 121.576 57.5014 121.591C57.5059 121.596 57.5693 121.671 57.7024 121.739C57.8471 121.813 58.1427 121.909 58.4939 121.79L57.7214 119.523C58.1607 119.373 58.5524 119.483 58.7972 119.609C59.0303 119.729 59.1977 119.892 59.3057 120.016C59.5255 120.268 59.6893 120.576 59.8048 120.861L57.5852 121.76ZM58.4939 121.79C58.8859 121.656 59.0653 121.355 59.1288 121.191C59.186 121.043 59.1816 120.94 59.1815 120.938C59.1813 120.925 59.1852 120.996 59.235 121.135L56.9803 121.943C56.8773 121.655 56.7932 121.315 56.7871 120.982C56.7841 120.821 56.7973 120.58 56.8948 120.328C56.9987 120.059 57.2412 119.686 57.7214 119.523L58.4939 121.79Z" fill="#0C0403" mask="url(#path-119-inside-1_11682_87592)"/>
<path d="M58.1665 119.709C58.1665 119.709 57.4499 119.378 57.6085 120.441" stroke="#0C0403" stroke-width="1.19744" stroke-miterlimit="10"/>
<path d="M60.3276 126.819C60.0785 126.888 59.8145 126.878 59.5711 126.79C59.3276 126.702 59.1161 126.54 58.965 126.326" stroke="#0C0403" stroke-width="1.19744" stroke-miterlimit="10"/>
<path d="M54.9711 111.205C54.9711 111.205 56.7332 109.572 57.7669 114.64C58.8007 119.708 55.6114 121.246 55.6114 121.75C55.6114 122.255 56.1694 122.567 55.77 123.306C55.6479 123.554 55.4476 123.753 55.2015 123.87C54.9554 123.988 54.6777 124.017 54.4132 123.954C54.1724 123.876 54.1723 127.635 52.0109 129.185C49.8494 130.734 44.6572 128.698 42.8188 126.488C40.9804 124.278 39.7821 119.282 41.462 115.078C43.1418 110.875 51.2121 107.854 54.9711 111.205Z" fill="#9656A1" stroke="#0C0403" stroke-width="1.19744" stroke-miterlimit="10"/>
<path d="M55.3709 124.939C55.3709 124.939 55.0537 123.137 54.5721 122.897C54.0904 122.657 53.1331 122.651 53.6147 124.2C54.0963 125.749 54.5721 127.551 55.4531 127.473C56.3341 127.395 55.8525 125.918 55.8525 125.918" fill="white"/>
<path d="M55.3709 124.939C55.3709 124.939 55.0537 123.137 54.5721 122.897C54.0904 122.657 53.1331 122.651 53.6147 124.2C54.0963 125.749 54.5721 127.551 55.4531 127.473C56.3341 127.395 55.8525 125.918 55.8525 125.918" stroke="#0C0403" stroke-width="1.19744" stroke-miterlimit="10"/>
<path d="M41.545 138.34C41.545 138.34 41.545 136.947 42.4201 136.377C43.2953 135.806 44.7402 135.176 46.42 134.251C48.0998 133.326 50.4963 133.68 52.9749 134.335C55.2007 135.063 57.3029 136.138 59.2067 137.524L59.5298 137.848C59.5298 137.848 55.6121 138.587 54.8309 139.481C54.0498 140.376 51.5535 143.487 48.4346 144.057C45.3158 144.628 41.545 138.34 41.545 138.34Z" fill="white" stroke="#0C0403" stroke-width="1.19744" stroke-miterlimit="10"/>
<path d="M65.6024 168.092C65.6024 168.092 68.1633 175.611 68.5392 177.244C68.9151 178.877 69.4965 180.511 69.338 181.003C69.1794 181.496 68.9385 182.204 68.6977 182.066C68.0413 181.199 67.4277 180.299 66.8593 179.37C66.8593 179.37 63.1825 174.872 61.9843 172.914C60.7861 170.957 59.6348 169.311 59.0475 167.269C58.4601 165.228 65.6024 168.092 65.6024 168.092Z" fill="white" stroke="#0C0403" stroke-width="1.19744" stroke-miterlimit="10"/>
<path d="M65.6026 168.091C65.6026 168.091 65.8551 168.83 66.1899 169.893C64.7283 170.701 63.0811 171.093 61.4206 171.028C61.2092 171.028 61.0095 171.028 60.8333 171.028C60.0873 169.859 59.4856 168.6 59.0418 167.281C58.4074 165.227 65.6026 168.091 65.6026 168.091Z" fill="#92E3A9" stroke="#0C0403" stroke-width="1.19744" stroke-miterlimit="10"/>
<path d="M61.127 139.236C61.127 139.236 65.6026 141.608 65.7612 142.755C65.9198 143.902 66.5601 166.536 66.5601 167.683C66.5601 168.83 61.9258 169.803 60.0052 169.07C58.0845 168.337 57.8496 164.086 58.0904 161.714C58.3312 159.342 60.4868 144.551 60.4868 144.551" fill="white"/>
<path d="M61.127 139.236C61.127 139.236 65.6026 141.608 65.7612 142.755C65.9198 143.902 66.5601 166.536 66.5601 167.683C66.5601 168.83 61.9258 169.803 60.0052 169.07C58.0845 168.337 57.8496 164.086 58.0904 161.714C58.3312 159.342 60.4868 144.551 60.4868 144.551" stroke="#0C0403" stroke-width="1.19744" stroke-miterlimit="10"/>
</svg>
