<svg width="22" height="22" viewBox="0 0 22 22" fill="none" xmlns="http://www.w3.org/2000/svg">
<path fill-rule="evenodd" clip-rule="evenodd" d="M10.3298 7.39122C9.60526 7.39122 9.01562 6.80249 9.01562 6.07903C9.01562 5.35558 9.60526 4.76685 10.3298 4.76685C11.0544 4.76685 11.644 5.35558 11.644 6.07903C11.644 6.80249 11.0544 7.39122 10.3298 7.39122ZM9.01562 10.4531C9.01562 11.1765 9.60526 11.7653 10.3298 11.7653C11.0544 11.7653 11.644 11.1765 11.644 10.4531C11.644 9.72963 11.0544 9.14089 10.3298 9.14089C9.60526 9.14089 9.01562 9.72963 9.01562 10.4531ZM9.01562 14.8269C9.01562 15.5503 9.60526 16.1391 10.3298 16.1391C11.0544 16.1391 11.644 15.5503 11.644 14.8269C11.644 14.1034 11.0544 13.5147 10.3298 13.5147C9.60526 13.5147 9.01562 14.1034 9.01562 14.8269Z" fill="black"/>
</svg>
