<svg width="31" height="31" viewBox="0 0 31 31" fill="none" xmlns="http://www.w3.org/2000/svg">
<rect width="30.6824" height="30.6824" rx="11.5059" fill="white" fill-opacity="0.1"/>
<path d="M21.4328 17.8533C21.3306 17.6808 21.0429 17.4123 20.327 17.5401C19.9307 17.6104 19.528 17.6424 19.1253 17.6232C17.6359 17.5593 16.2872 16.8753 15.3475 15.8206C14.5165 14.8938 14.0052 13.6857 13.9988 12.3817C13.9988 11.653 14.1394 10.9498 14.427 10.285C14.7083 9.63942 14.5101 9.30064 14.3695 9.16001C14.2225 9.01299 13.8773 8.80844 13.1997 9.0897C10.5854 10.1891 8.96814 12.8099 9.1599 15.6161C9.35167 18.2561 11.2054 20.5125 13.66 21.3626C14.2481 21.5672 14.8681 21.6886 15.5073 21.7142C15.6096 21.7206 15.7119 21.727 15.8141 21.727C17.9555 21.727 19.9626 20.717 21.2283 18.9975C21.6566 18.4031 21.5415 18.0259 21.4328 17.8533Z" fill="black"/>
</svg>
