<svg width="32" height="32" viewBox="0 0 32 32" fill="none" xmlns="http://www.w3.org/2000/svg">
<rect x="0.546875" y="0.682373" width="30.6824" height="30.6824" rx="11.5059" fill="white" fill-opacity="0.1"/>
<path fill-rule="evenodd" clip-rule="evenodd" d="M15.1472 15.893L15.1482 16.1193C15.156 17.0171 15.2101 17.8181 15.3034 18.3257C15.3034 18.3348 15.4052 18.8383 15.4701 19.0059C15.5719 19.2481 15.756 19.4537 15.9868 19.5839C16.1716 19.6769 16.3654 19.7241 16.5683 19.7241C16.7279 19.7167 16.9909 19.6364 17.1787 19.5691L17.3347 19.5093C18.3681 19.0988 20.3436 17.7575 21.1002 16.9372L21.156 16.8798L21.4049 16.6112C21.5618 16.4056 21.6448 16.1542 21.6448 15.8838C21.6448 15.6416 21.5709 15.3994 21.4231 15.2037C21.3788 15.1402 21.3075 15.0589 21.2441 14.9901L21.0018 14.7365C20.1679 13.8917 18.3625 12.7066 17.4267 12.314C17.4267 12.3055 16.8452 12.0626 16.5683 12.0535H16.5314C16.1067 12.0535 15.7099 12.2957 15.507 12.6872C15.4516 12.7942 15.3984 13.0038 15.358 13.188L15.2853 13.5356C15.2023 14.0947 15.1472 14.9523 15.1472 15.893ZM11.0996 14.9182C10.5689 14.9182 10.1387 15.3527 10.1387 15.8885C10.1387 16.4243 10.5689 16.8588 11.0996 16.8588L13.4642 16.6496C13.8805 16.6496 14.218 16.3096 14.218 15.8885C14.218 15.4681 13.8805 15.1274 13.4642 15.1274L11.0996 14.9182Z" fill="black"/>
</svg>
