<svg width="31" height="32" viewBox="0 0 31 32" fill="none" xmlns="http://www.w3.org/2000/svg">
<rect opacity="0.1" y="0.36499" width="30.6824" height="30.6824" rx="11.5059" fill="white"/>
<path fill-rule="evenodd" clip-rule="evenodd" d="M14.6003 15.5754L14.6013 15.8017C14.6091 16.6995 14.6632 17.5005 14.7565 18.0081C14.7565 18.0172 14.8583 18.5207 14.9232 18.6882C15.025 18.9304 15.2091 19.136 15.4399 19.2663C15.6247 19.3593 15.8186 19.4064 16.0215 19.4064C16.181 19.399 16.444 19.3188 16.6318 19.2515L16.7878 19.1917C17.8212 18.7812 19.7968 17.4398 20.5533 16.6196L20.6091 16.5622L20.8581 16.2936C21.015 16.088 21.0979 15.8366 21.0979 15.5662C21.0979 15.324 21.024 15.0818 20.8762 14.886C20.8319 14.8226 20.7607 14.7413 20.6972 14.6725L20.4549 14.4189C19.6211 13.574 17.8157 12.389 16.8799 11.9964C16.8799 11.9879 16.2983 11.745 16.0215 11.7358H15.9845C15.5598 11.7358 15.1631 11.9781 14.9602 12.3695C14.9047 12.4766 14.8515 12.6862 14.8111 12.8703L14.7384 13.218C14.6554 13.7771 14.6003 14.6347 14.6003 15.5754ZM10.5527 14.6006C10.022 14.6006 9.5918 15.035 9.5918 15.5709C9.5918 16.1067 10.022 16.5411 10.5527 16.5411L12.9173 16.332C13.3336 16.332 13.6711 15.9919 13.6711 15.5709C13.6711 15.1505 13.3336 14.8097 12.9173 14.8097L10.5527 14.6006Z" fill="black"/>
</svg>
