<svg width="24" height="24" viewBox="0 0 24 24" fill="none" xmlns="http://www.w3.org/2000/svg">
<path fill-rule="evenodd" clip-rule="evenodd" d="M13.9857 2.54161C14.073 2.71093 14.0947 2.92777 14.1381 3.36144C14.2202 4.1823 14.2612 4.59274 14.433 4.81793C14.6509 5.10358 15.0053 5.25038 15.3614 5.20248C15.6421 5.16472 15.9613 4.90352 16.5998 4.38113C16.9371 4.10515 17.1058 3.96716 17.2873 3.90918C17.5178 3.83555 17.7671 3.84798 17.9892 3.94419C18.164 4.01994 18.3181 4.17402 18.6262 4.4822L19.5197 5.37567C19.8279 5.68385 19.982 5.83794 20.0577 6.01275C20.1539 6.23478 20.1664 6.48415 20.0927 6.71464C20.0348 6.89612 19.8968 7.06478 19.6208 7.4021C19.0984 8.0406 18.8372 8.35984 18.7994 8.64056C18.7515 8.99662 18.8983 9.35102 19.184 9.56893C19.4091 9.74072 19.8196 9.78176 20.6405 9.86385C21.0742 9.90722 21.291 9.92891 21.4604 10.0162C21.6754 10.1272 21.8429 10.3123 21.9319 10.5373C22.002 10.7145 22.002 10.9324 22.002 11.3682V12.6319C22.002 13.0676 22.002 13.2855 21.9319 13.4626C21.843 13.6877 21.6754 13.8729 21.4603 13.9838C21.291 14.0711 21.0742 14.0928 20.6406 14.1361L20.6406 14.1361C19.8199 14.2182 19.4096 14.2592 19.1845 14.4309C18.8987 14.6489 18.7518 15.0034 18.7998 15.3596C18.8376 15.6402 19.0987 15.9593 19.6209 16.5976C19.8968 16.9348 20.0348 17.1034 20.0927 17.2848C20.1664 17.5154 20.154 17.7648 20.0577 17.9869C19.982 18.1617 19.8279 18.3157 19.5199 18.6238L18.6263 19.5174C18.3181 19.8255 18.164 19.9796 17.9892 20.0554C17.7672 20.1516 17.5178 20.164 17.2873 20.0904C17.1058 20.0324 16.9372 19.8944 16.5999 19.6184L16.5999 19.6184C15.9614 19.096 15.6422 18.8348 15.3615 18.7971C15.0054 18.7492 14.651 18.896 14.4331 19.1816C14.2613 19.4068 14.2202 19.8173 14.1381 20.6383C14.0947 21.0722 14.073 21.2891 13.9857 21.4585C13.8748 21.6735 13.6897 21.8409 13.4648 21.9299C13.2875 22 13.0696 22 12.6336 22H11.3702C10.9343 22 10.7164 22 10.5392 21.9299C10.3142 21.841 10.1291 21.6734 10.0182 21.4584C9.93086 21.2891 9.90918 21.0722 9.86581 20.6385C9.78372 19.8176 9.74267 19.4072 9.57087 19.182C9.35296 18.8964 8.99858 18.7496 8.64252 18.7975C8.3618 18.8352 8.04255 19.0964 7.40403 19.6189L7.40402 19.6189C7.06669 19.8949 6.89802 20.0329 6.71654 20.0908C6.48605 20.1645 6.23669 20.152 6.01467 20.0558C5.83986 19.9801 5.68576 19.826 5.37756 19.5178L4.48412 18.6243C4.17593 18.3162 4.02184 18.1621 3.94609 17.9873C3.84989 17.7652 3.83746 17.5159 3.91109 17.2854C3.96906 17.1039 4.10706 16.9352 4.38306 16.5979C4.90546 15.9594 5.16666 15.6402 5.20443 15.3594C5.25232 15.0034 5.10553 14.649 4.81988 14.4311C4.59469 14.2593 4.18425 14.2182 3.36338 14.1361C2.92972 14.0928 2.71288 14.0711 2.54357 13.9838C2.32851 13.8728 2.16097 13.6877 2.072 13.4627C2.00195 13.2855 2.00195 13.0676 2.00195 12.6318V11.3683C2.00195 10.9324 2.00195 10.7144 2.07204 10.5372C2.161 10.3123 2.32849 10.1272 2.54348 10.0163C2.71283 9.92891 2.92972 9.90722 3.3635 9.86384H3.36351H3.36351C4.1846 9.78173 4.59514 9.74068 4.82037 9.56881C5.1059 9.35092 5.25265 8.99664 5.20482 8.64066C5.16709 8.35987 4.9058 8.04052 4.38323 7.40182C4.10712 7.06435 3.96906 6.89561 3.91109 6.71405C3.83752 6.48364 3.84995 6.23438 3.94608 6.01243C4.02183 5.83754 4.17598 5.68339 4.48429 5.37509L5.37761 4.48177L5.37761 4.48177C5.6858 4.17357 5.8399 4.01947 6.01472 3.94373C6.23673 3.84753 6.4861 3.8351 6.71658 3.90872C6.89807 3.9667 7.06676 4.10472 7.40415 4.38076C8.04257 4.9031 8.36178 5.16427 8.6424 5.20207C8.99857 5.25003 9.35309 5.10319 9.57102 4.81742C9.74273 4.59227 9.78376 4.18195 9.86582 3.36131C9.90918 2.92776 9.93085 2.71098 10.0181 2.5417C10.1291 2.32658 10.3143 2.15898 10.5394 2.07001C10.7165 2 10.9343 2 11.37 2H12.6337C13.0696 2 13.2875 2 13.4646 2.07005C13.6897 2.15902 13.8748 2.32656 13.9857 2.54161ZM12.002 16C14.2111 16 16.002 14.2091 16.002 12C16.002 9.79086 14.2111 8 12.002 8C9.79281 8 8.00195 9.79086 8.00195 12C8.00195 14.2091 9.79281 16 12.002 16Z" fill="white"/>
</svg>
