<svg width="365" height="247" viewBox="0 0 365 247" fill="none" xmlns="http://www.w3.org/2000/svg">
<path opacity="0.3" d="M17.9424 50.0835L14.2686 53.7676L17.9425 57.4517L21.6163 53.7676L17.9424 50.0835Z" stroke="#021832" stroke-width="0.967048" stroke-linecap="round" stroke-linejoin="round"/>
<path d="M287.466 72.6582C278.944 59.5399 259.066 56.9844 247.839 67.5949C247.723 62.2306 246.122 57.0201 243.235 52.6086C240.348 48.1972 236.301 44.7784 231.596 42.7758C226.89 40.7731 221.733 40.2745 216.763 41.3417C211.792 42.4088 207.227 44.9949 203.632 48.7796C205.235 42.8167 199.322 37.0038 193.473 36.6835C187.625 36.3633 182.207 39.6888 177.19 42.8849C172.172 46.081 166.722 49.3725 160.873 48.9568C154.542 48.507 149.279 43.8321 143.366 41.4129C128.885 35.491 110.56 45.9992 107.352 62.0682C91.3257 55.2535 70.7647 66.4296 66.7324 84.209L301.38 87.1053C300.543 83.5753 298.801 80.3584 296.346 77.8092C293.891 75.26 290.818 73.4775 287.466 72.6582Z" fill="#F5F5F5"/>
<path d="M315.628 24.5859C316.091 21.0014 311.312 18.0506 307.718 17.7712C305.998 17.6213 304.22 17.9007 302.565 17.301C299.048 16.0062 297.643 11.1678 294.191 9.66178C291.614 8.51691 288.67 9.53911 286.178 10.8612C283.685 12.1832 281.231 13.8528 278.448 14.0436C276.026 14.2072 273.404 13.2599 271.285 14.507C269.713 15.4406 268.889 17.3624 267.42 18.4936C265.952 19.6248 264.142 19.8565 262.383 19.9383C260.625 20.0201 258.789 20.061 257.185 20.8378C255.581 21.6147 254.248 23.4138 254.608 25.2469L315.628 24.5859Z" fill="#EBEBEB"/>
<path d="M83.4546 23.3255C83.6994 21.4447 81.1937 19.9182 79.3128 19.741C78.4112 19.7803 77.5086 19.6978 76.6267 19.4957C74.7845 18.8142 74.0501 16.2996 72.253 15.4955C70.9067 14.8958 69.3608 15.4342 68.0596 16.1224C66.7585 16.8107 65.4831 17.6898 64.0144 17.792C62.7262 17.8738 61.3735 17.3832 60.2655 18.0374C59.4346 18.5212 58.9773 19.5298 58.2429 20.1226C57.4499 20.6388 56.5328 20.9014 55.602 20.8791C54.6761 20.8553 53.7542 21.0148 52.8837 21.3493C52.451 21.527 52.0842 21.848 51.8381 22.2643C51.592 22.6807 51.4797 23.1701 51.5181 23.6595L83.4546 23.3255Z" fill="#EBEBEB"/>
<path d="M136.383 55.7357C136.628 53.8548 134.122 52.3284 132.241 52.1512C131.34 52.1904 130.437 52.108 129.555 51.9059C127.713 51.2244 126.979 48.7098 125.182 47.9056C123.835 47.306 122.29 47.8443 120.988 48.5326C119.687 49.2209 118.412 50.1 116.943 50.2022C115.655 50.284 114.302 49.7933 113.194 50.4475C112.363 50.9314 111.906 51.9399 111.172 52.5328C110.379 53.0489 109.462 53.3116 108.531 53.2892C107.605 53.2655 106.683 53.4249 105.812 53.7594C105.38 53.9371 105.013 54.2581 104.767 54.6745C104.521 55.0908 104.408 55.5802 104.447 56.0696L136.383 55.7357Z" fill="#EBEBEB"/>
<path d="M298.255 229.433C298.255 229.433 298.152 229.311 297.991 229.052L297.347 227.886C296.767 226.878 295.956 225.392 294.983 223.545C293.051 219.845 290.474 214.639 287.717 208.86C284.96 203.081 282.448 197.847 280.567 194.106L278.326 189.69L277.72 188.477C277.638 188.342 277.575 188.195 277.533 188.041C277.637 188.158 277.726 188.288 277.797 188.429L278.441 189.588C279.021 190.597 279.833 192.082 280.805 193.936C282.738 197.636 285.314 202.836 288.071 208.621C290.828 214.407 293.34 219.627 295.221 223.368L297.463 227.791L298.068 228.99C298.148 229.129 298.211 229.278 298.255 229.433Z" fill="#E0E0E0"/>
<path d="M225.082 193.342C224.695 193.543 224.37 193.847 224.143 194.219C223.916 194.592 223.795 195.019 223.794 195.455C223.809 195.942 223.981 196.411 224.285 196.792C224.588 197.173 225.006 197.446 225.477 197.57C225.948 197.694 226.446 197.663 226.898 197.481C227.35 197.3 227.731 196.977 227.984 196.561C228.238 196.145 228.35 195.659 228.305 195.174C228.26 194.689 228.059 194.232 227.733 193.87C227.407 193.508 226.973 193.262 226.495 193.167C226.017 193.071 225.522 193.133 225.082 193.342Z" fill="#9656A1"/>
<g opacity="0.8">
<path d="M225.082 193.342C224.695 193.543 224.37 193.847 224.143 194.219C223.916 194.592 223.795 195.019 223.794 195.455C223.809 195.942 223.981 196.411 224.285 196.792C224.588 197.173 225.006 197.446 225.477 197.57C225.948 197.694 226.446 197.663 226.898 197.481C227.35 197.3 227.731 196.977 227.984 196.561C228.238 196.145 228.35 195.659 228.305 195.174C228.26 194.689 228.059 194.232 227.733 193.87C227.407 193.508 226.973 193.262 226.495 193.167C226.017 193.071 225.522 193.133 225.082 193.342Z" fill="white"/>
</g>
<path opacity="0.3" d="M317.054 152.464C317.054 152.464 315.003 146.01 310.912 144.4C310.206 144.086 309.442 143.925 308.67 143.928C307.898 143.93 307.135 144.096 306.431 144.414C305.727 144.732 305.098 145.196 304.585 145.774C304.072 146.353 303.686 147.034 303.453 147.772C302.871 149.823 302.43 151.143 301.277 149.823C300.124 148.503 297.327 148.65 296.304 151.143C295.282 153.637 294.841 155.541 293.818 154.073C292.795 152.606 290.75 152.169 289.874 153.489C289.355 154.253 288.961 155.095 288.704 155.983H323.061C323.061 155.983 323.354 154.073 321.456 152.164C319.557 150.254 318.366 153.058 317.054 152.464Z" stroke="#021832" stroke-width="0.967048" stroke-linecap="round" stroke-linejoin="round"/>
<path opacity="0.3" d="M341.561 73.0301C341.561 73.0301 339.516 66.5815 335.424 64.9667C334.719 64.6528 333.955 64.4918 333.182 64.4942C332.41 64.4965 331.647 64.6622 330.943 64.9804C330.239 65.2986 329.61 65.7622 329.097 66.3408C328.584 66.9194 328.198 67.6 327.966 68.3383C327.378 70.3896 326.943 71.7098 325.789 70.3896C324.636 69.0693 321.84 69.2166 320.817 71.7098C319.794 74.2031 319.353 76.1071 318.33 74.645C317.308 73.1829 315.262 72.7355 314.381 74.0558C313.865 74.8213 313.47 75.6624 313.211 76.549H347.573C347.573 76.549 347.867 74.645 345.941 72.73C344.015 70.8151 342.889 73.6193 341.561 73.0301Z" stroke="#021832" stroke-width="0.967048" stroke-linecap="round" stroke-linejoin="round"/>
<path opacity="0.3" d="M158.588 17.0194C158.588 17.0194 155.193 6.33182 148.403 3.64766C141.614 0.963492 137.011 5.82991 136.043 9.23967C135.074 12.6494 134.345 14.8317 132.408 12.644C130.472 10.4563 125.88 10.6963 124.166 14.8262C122.452 18.9561 121.74 22.1204 120.042 19.6872C118.345 17.254 114.95 16.5284 113.514 18.7161C112.658 19.9844 112.003 21.3774 111.571 22.846H168.528C168.528 22.846 169.012 19.6872 165.862 16.5284C162.712 13.3696 160.77 17.9905 158.588 17.0194Z" stroke="#021832" stroke-width="0.967048" stroke-linecap="round" stroke-linejoin="round"/>
<path opacity="0.13" d="M0.236328 245.495C0.236328 245.495 0.606282 226.777 12.559 221.534C24.5117 216.291 27.1177 226.777 30.1046 230.143C33.0914 233.509 31.6007 237.235 41.3065 229.772C51.0123 222.309 54.0046 226.024 57.3614 230.143C60.7181 234.262 63.3459 236.886 67.4426 234.262C71.5393 231.638 74.0582 231.998 76.7784 235.386C79.4987 238.774 85.369 241.387 90.9672 239.128C96.5655 236.87 100.303 236.51 103.29 239.128C106.277 241.747 110.009 243.624 113.746 241.753C117.484 239.881 120.819 242.124 122.332 242.876C123.844 243.629 128.681 245.495 128.681 245.495H0.236328Z" fill="#021832"/>
<path opacity="0.3" d="M83.2979 39.6484L89.6959 46.0643" stroke="#021832" stroke-width="0.967048" stroke-linecap="round" stroke-linejoin="round"/>
<path opacity="0.3" d="M89.6959 39.6484L83.2979 46.0643" stroke="#021832" stroke-width="0.967048" stroke-linecap="round" stroke-linejoin="round"/>
<path opacity="0.3" d="M136.87 102.986L143.263 109.402" stroke="#021832" stroke-width="0.967048" stroke-linecap="round" stroke-linejoin="round"/>
<path opacity="0.3" d="M143.263 102.986L136.87 109.402" stroke="#021832" stroke-width="0.967048" stroke-linecap="round" stroke-linejoin="round"/>
<path opacity="0.3" d="M276.786 18.002L283.184 24.4178" stroke="#021832" stroke-width="0.967048" stroke-linecap="round" stroke-linejoin="round"/>
<path opacity="0.3" d="M283.184 18.002L276.786 24.4178" stroke="#021832" stroke-width="0.967048" stroke-linecap="round" stroke-linejoin="round"/>
<path opacity="0.3" d="M124.003 182.465L130.401 188.875" stroke="#021832" stroke-width="0.967048" stroke-linecap="round" stroke-linejoin="round"/>
<path opacity="0.3" d="M130.401 182.465L124.003 188.875" stroke="#021832" stroke-width="0.967048" stroke-linecap="round" stroke-linejoin="round"/>
<path d="M246.753 235.311H239.764V235.512H246.753V235.311Z" fill="#EBEBEB"/>
<path d="M314.76 225.652H299.326V225.854H314.76V225.652Z" fill="#EBEBEB"/>
<path d="M69.55 227H64.458V227.201H69.55V227Z" fill="#EBEBEB"/>
<path d="M161.443 230.398H86.0996V230.6H161.443V230.398Z" fill="#EBEBEB"/>
<path d="M99.5553 221.013H82.2637V218.598L99.5553 216.988V221.013Z" fill="#F5F5F5"/>
<path opacity="0.3" d="M44.5225 115.816L50.915 122.232" stroke="#021832" stroke-width="0.967048" stroke-linecap="round" stroke-linejoin="round"/>
<path opacity="0.3" d="M50.915 115.816L44.5225 122.232" stroke="#021832" stroke-width="0.967048" stroke-linecap="round" stroke-linejoin="round"/>
<path opacity="0.3" d="M311.971 96.5742L318.363 102.99" stroke="#021832" stroke-width="0.967048" stroke-linecap="round" stroke-linejoin="round"/>
<path opacity="0.3" d="M318.363 96.5742L311.971 102.99" stroke="#021832" stroke-width="0.967048" stroke-linecap="round" stroke-linejoin="round"/>
<path opacity="0.3" d="M128.273 49.7944L124.599 53.4785L128.273 57.1626L131.946 53.4785L128.273 49.7944Z" stroke="#021832" stroke-width="0.967048" stroke-linecap="round" stroke-linejoin="round"/>
<path opacity="0.3" d="M265.992 80.1382L262.318 83.8223L265.992 87.5064L269.666 83.8223L265.992 80.1382Z" stroke="#021832" stroke-width="0.967048" stroke-linecap="round" stroke-linejoin="round"/>
<path opacity="0.3" d="M46.4405 197.525L42.7666 201.209L46.4405 204.893L50.1144 201.209L46.4405 197.525Z" stroke="#021832" stroke-width="0.967048" stroke-linecap="round" stroke-linejoin="round"/>
<path opacity="0.3" d="M124.52 137.316L120.846 141L124.52 144.684L128.193 141L124.52 137.316Z" stroke="#021832" stroke-width="0.967048" stroke-linecap="round" stroke-linejoin="round"/>
<path opacity="0.3" d="M298.302 197.519L294.628 201.203L298.302 204.887L301.976 201.203L298.302 197.519Z" stroke="#021832" stroke-width="0.967048" stroke-linecap="round" stroke-linejoin="round"/>
<path d="M0.236328 245.609L364.357 245.609" stroke="#021832" stroke-width="0.967048" stroke-miterlimit="10"/>
<path d="M69.2562 61.9741H296.361C301.298 61.9741 305.301 65.9768 305.301 70.9144V214.738C305.301 219.676 301.298 223.678 296.361 223.678H69.2562C64.3186 223.678 60.3159 219.676 60.3159 214.738V70.9144C60.3159 65.9768 64.3186 61.9741 69.2562 61.9741Z" stroke="#3A3737" stroke-width="0.889696"/>
<path d="M50.2607 213.623H316.651V216.625C316.651 219.601 315.469 222.455 313.365 224.559C311.26 226.663 308.406 227.846 305.43 227.846H61.4817C58.5057 227.846 55.6516 226.663 53.5473 224.559C51.4429 222.455 50.2607 219.601 50.2607 216.625V213.623Z" fill="#455A64"/>
<path d="M158.566 212.104L161.877 217.36H208.391L211.457 212.104H158.566Z" fill="#263238"/>
<path d="M295.787 70.3828H69.6187C68.4157 70.3828 67.4404 71.3581 67.4404 72.5611V204.943C67.4404 206.146 68.4157 207.122 69.6187 207.122H295.787C296.99 207.122 297.965 206.146 297.965 204.943V72.5611C297.965 71.3581 296.99 70.3828 295.787 70.3828Z" fill="#EBEBEB"/>
<path d="M293.92 201.498C293.92 203.464 292.327 205.057 290.361 205.057H74.5741C72.6061 205.057 71.0117 203.46 71.0153 201.492L71.2406 78.3159C71.2442 76.353 72.8365 74.7637 74.7994 74.7637H290.361C292.327 74.7637 293.92 76.357 293.92 78.3225V201.498Z" fill="white"/>
<path d="M303.633 212.102C303.633 212.186 249.061 212.257 181.755 212.257C114.449 212.257 59.8711 212.186 59.8711 212.102C59.8711 212.019 114.43 211.941 181.755 211.941C249.081 211.941 303.633 212.006 303.633 212.102Z" fill="#263238"/>
<path d="M270.441 135.276C267.335 137.954 265.029 141.438 263.779 145.344C262.528 149.25 262.382 153.425 263.355 157.409C260.451 156.836 257.449 156.985 254.616 157.843C251.782 158.701 249.202 160.242 247.103 162.33C245.005 164.418 243.45 166.99 242.578 169.819C241.705 172.648 241.541 175.649 242.099 178.556C235.715 174.163 225.957 175.806 221.364 182.054C221.267 177.931 221.106 173.583 218.942 170.073C216.778 166.562 211.856 164.398 208.384 166.627C209.7 165.127 210.5 163.245 210.665 161.257C210.83 159.269 210.352 157.281 209.301 155.585C208.25 153.889 206.683 152.576 204.829 151.838C202.975 151.101 200.934 150.979 199.006 151.489C198.909 146.542 195.785 111.514 193.208 81.9609H171.205C168.628 110.999 165.684 144.352 165.588 149.177C163.654 148.655 161.604 148.771 159.742 149.508C157.88 150.245 156.305 151.563 155.252 153.267C154.2 154.97 153.724 156.968 153.898 158.963C154.072 160.958 154.884 162.844 156.215 164.34C152.744 162.111 147.842 164.282 145.658 167.786C143.474 171.29 143.326 175.645 143.23 179.767C138.637 173.525 128.885 171.876 122.495 176.269C123.053 173.362 122.888 170.362 122.016 167.532C121.143 164.703 119.589 162.131 117.49 160.043C115.391 157.955 112.811 156.414 109.978 155.556C107.144 154.698 104.143 154.549 101.238 155.122C102.27 151.139 102.15 146.944 100.892 143.025C99.6345 139.107 97.2902 135.626 94.132 132.987C90.9738 130.348 87.1316 128.66 83.0519 128.119C78.9723 127.578 74.8228 128.206 71.0859 129.93V204.992H293.508V132.204C289.754 130.536 285.612 129.941 281.54 130.483C277.469 131.025 273.627 132.684 270.441 135.276Z" fill="#F4F2F2"/>
<path d="M161.962 130.3C161.962 125.659 158.916 121.904 155.163 121.904C151.41 121.904 148.369 125.659 148.369 130.3C148.369 133.658 149.973 136.551 152.283 137.891L155.324 157.822L158.065 137.879C160.364 136.533 161.962 133.652 161.962 130.3Z" fill="#FF6F61"/>
<path d="M155.166 133.888C156.134 133.888 156.919 131.246 156.919 127.988C156.919 124.729 156.134 122.088 155.166 122.088C154.198 122.088 153.413 124.729 153.413 127.988C153.413 131.246 154.198 133.888 155.166 133.888Z" fill="white"/>
<path d="M223.899 130.3C223.899 125.659 220.859 121.904 217.106 121.904C213.353 121.904 210.307 125.659 210.307 130.3C210.307 133.658 211.91 136.551 214.221 137.891L217.261 157.822L220.003 137.879C222.307 136.533 223.899 133.652 223.899 130.3Z" fill="#FF6F61"/>
<path d="M217.291 133.888C218.259 133.888 219.044 131.246 219.044 127.988C219.044 124.729 218.259 122.088 217.291 122.088C216.323 122.088 215.538 124.729 215.538 127.988C215.538 131.246 216.323 133.888 217.291 133.888Z" fill="white"/>
<path d="M198.623 133.451C198.623 125.199 193.204 118.5 186.519 118.5C179.835 118.5 174.409 125.194 174.409 133.451C174.409 139.443 177.283 144.59 181.381 146.982L186.801 182.474L191.68 146.959C195.784 144.567 198.623 139.426 198.623 133.451Z" fill="#FF6F61"/>
<path d="M186.512 138.396C188.727 138.396 190.524 134.14 190.524 128.89C190.524 123.641 188.727 119.385 186.512 119.385C184.296 119.385 182.5 123.641 182.5 128.89C182.5 134.14 184.296 138.396 186.512 138.396Z" fill="white"/>
<path d="M194.812 94.5234L216.463 101.257V116.772H192.473L194.812 94.5234Z" fill="white" stroke="#021832" stroke-width="1.06536" stroke-miterlimit="10"/>
<path d="M203.301 97.1629L194.812 94.5234L192.473 116.772H199.582L203.301 97.1629Z" fill="#021832" stroke="#9656A1" stroke-width="1.06536" stroke-miterlimit="10"/>
<path d="M212.491 86.1748C212.985 84.4497 214.56 79.0385 217.06 78.6992C219.56 79.0212 221.135 84.4497 221.629 86.1748C223.231 91.7762 223.701 97.6407 223.014 103.426C222.949 103.94 222.88 104.452 222.807 104.961L220.135 122.61H213.985C213.985 122.61 211.318 104.973 211.312 104.961C211.24 104.448 211.171 103.936 211.105 103.426C210.418 97.6407 210.889 91.7762 212.491 86.1748Z" fill="white" stroke="#021832" stroke-width="1.06536" stroke-miterlimit="10"/>
<path d="M212.146 87.4837C212.255 87.0409 212.358 86.5981 212.485 86.1611C212.979 84.436 214.554 79.0248 217.054 78.6855C219.554 79.0076 221.129 84.436 221.623 86.1611C221.75 86.5981 221.853 87.0409 221.968 87.4837H212.146Z" fill="#9656A1" stroke="#021832" stroke-width="1.06536" stroke-miterlimit="10"/>
<path d="M220.836 117.959L220.129 122.646H213.979L213.272 117.959H220.836Z" fill="#FF8E3C" stroke="#021832" stroke-width="1.06536" stroke-miterlimit="10"/>
<path d="M177.546 94.5234L155.896 101.257V116.772H179.891L177.546 94.5234Z" fill="white" stroke="#021832" stroke-width="1.06536" stroke-miterlimit="10"/>
<path d="M172.967 116.772H179.892L177.547 94.5234L169.047 97.1686L172.967 116.772Z" fill="#021832" stroke="#9656A1" stroke-width="1.06536" stroke-miterlimit="10"/>
<path d="M202.857 69.3612C202.69 70.7758 202.5 72.1962 202.282 73.6108C202.282 73.6108 201.627 77.9466 200.707 84.0191L194.862 122.627H177.792L172.044 84.7149C171.067 78.2744 170.366 73.6223 170.36 73.6108C170.148 72.1962 169.958 70.7758 169.786 69.3612C168.204 56.0581 168.82 42.5853 171.608 29.482C172.186 26.7678 172.861 24.0727 173.631 21.3969C175.004 16.6183 179.378 1.56938 186.315 0.695312C193.253 1.58663 197.627 16.6355 199 21.3969C199.824 24.2491 200.537 27.1243 201.138 30.0225C203.832 42.9563 204.413 56.2416 202.857 69.3612Z" fill="white" stroke="#021832" stroke-width="1.06536" stroke-miterlimit="10"/>
<path d="M196.398 13.4394C194.179 7.66017 190.783 1.22543 186.328 0.650391C181.874 1.22543 178.477 7.63717 176.253 13.4164L196.398 13.4394Z" fill="#9656A1" stroke="#021832" stroke-width="1.06536" stroke-miterlimit="10"/>
<path d="M176.729 115.6C177.373 119.838 177.793 122.627 177.793 122.627H194.863C194.863 122.627 195.282 119.838 195.926 115.6H176.729Z" fill="#FF8E3C" stroke="#021832" stroke-width="1.06536" stroke-miterlimit="10"/>
<path d="M159.88 86.1748C159.38 84.4497 157.805 79.0385 155.311 78.6992C152.811 79.0212 151.236 84.4497 150.742 86.1748C149.14 91.7762 148.669 97.6407 149.356 103.426C149.422 103.94 149.49 104.452 149.563 104.961L152.236 122.61H158.38C158.38 122.61 161.053 104.973 161.058 104.961C161.133 104.45 161.202 103.938 161.259 103.426C161.949 97.641 161.48 91.7766 159.88 86.1748Z" fill="white" stroke="#021832" stroke-width="1.06536" stroke-miterlimit="10"/>
<path d="M160.218 87.4837C160.109 87.0409 160 86.5981 159.879 86.1611C159.379 84.436 157.804 79.0248 155.31 78.6855C152.809 79.0076 151.235 84.436 150.74 86.1611C150.614 86.5981 150.51 87.0409 150.396 87.4837H160.218Z" fill="#9656A1" stroke="#021832" stroke-width="1.06536" stroke-miterlimit="10"/>
<path d="M151.526 117.959L152.233 122.646H158.377C158.377 122.646 158.688 120.627 159.09 117.959H151.526Z" fill="#FF8E3C" stroke="#021832" stroke-width="1.06536" stroke-miterlimit="10"/>
<path d="M188.794 47.4204C194.617 46.0571 198.233 40.2291 196.87 34.4031C195.508 28.5771 189.683 24.9594 183.86 26.3226C178.037 27.6859 174.421 33.5139 175.784 39.3399C177.146 45.1659 182.971 48.7836 188.794 47.4204Z" fill="#021832" stroke="#9656A1" stroke-width="1.06536" stroke-miterlimit="10"/>
<path d="M187.938 43.7273C191.73 42.8368 194.082 39.0395 193.192 35.2459C192.302 31.4522 188.507 29.0987 184.715 29.9892C180.923 30.8797 178.571 34.677 179.461 38.4706C180.351 42.2643 184.147 44.6178 187.938 43.7273Z" fill="white" stroke="#021832" stroke-width="1.06536" stroke-miterlimit="10"/>
<path d="M188.794 76.6938C194.617 75.3306 198.233 69.5025 196.871 63.6765C195.508 57.8506 189.683 54.2328 183.86 55.5961C178.037 56.9593 174.421 62.7873 175.784 68.6133C177.146 74.4393 182.971 78.0571 188.794 76.6938Z" fill="#021832" stroke="#9656A1" stroke-width="1.06536" stroke-miterlimit="10"/>
<path d="M187.941 73.0086C191.733 72.1181 194.085 68.3208 193.195 64.5271C192.305 60.7334 188.51 58.3799 184.718 59.2704C180.926 60.1609 178.574 63.9582 179.464 67.7519C180.354 71.5456 184.15 73.8991 187.941 73.0086Z" fill="white" stroke="#021832" stroke-width="1.06536" stroke-miterlimit="10"/>
<path d="M167.247 114.643V132.883" stroke="#021832" stroke-width="1.06536" stroke-miterlimit="10"/>
<path d="M167.247 136.936V140.99" stroke="#021832" stroke-width="1.06536" stroke-miterlimit="10"/>
<path d="M202.904 115.855V151.939" stroke="#021832" stroke-width="1.06536" stroke-miterlimit="10"/>
<path d="M202.904 155.582V159.636" stroke="#021832" stroke-width="1.06536" stroke-miterlimit="10"/>
<path d="M207.496 113.422V120.782" stroke="#021832" stroke-width="1.06536" stroke-miterlimit="10"/>
<path d="M163.161 114.812V119.585" stroke="#021832" stroke-width="1.06536" stroke-miterlimit="10"/>
<rect x="157.456" y="185.332" width="52" height="16.9118" rx="3.95588" fill="#FF6F61"/>
<path d="M175.08 196.37C174.785 196.37 174.489 196.315 174.194 196.204C173.903 196.093 173.642 195.932 173.411 195.719L173.993 195.02C174.155 195.159 174.335 195.272 174.533 195.359C174.731 195.447 174.923 195.491 175.108 195.491C175.32 195.491 175.477 195.452 175.578 195.373C175.684 195.295 175.738 195.189 175.738 195.055C175.738 194.912 175.678 194.808 175.558 194.743C175.442 194.674 175.285 194.598 175.087 194.515L174.498 194.266C174.346 194.201 174.201 194.116 174.062 194.01C173.924 193.899 173.811 193.763 173.723 193.601C173.635 193.44 173.591 193.25 173.591 193.033C173.591 192.784 173.658 192.558 173.792 192.355C173.931 192.152 174.12 191.99 174.36 191.87C174.605 191.75 174.884 191.69 175.198 191.69C175.456 191.69 175.714 191.741 175.973 191.843C176.231 191.944 176.458 192.092 176.651 192.286L176.132 192.93C175.984 192.814 175.837 192.726 175.689 192.666C175.541 192.602 175.378 192.57 175.198 192.57C175.022 192.57 174.881 192.606 174.775 192.68C174.674 192.75 174.623 192.849 174.623 192.978C174.623 193.116 174.688 193.22 174.817 193.29C174.951 193.359 175.114 193.433 175.308 193.511L175.89 193.746C176.162 193.857 176.379 194.01 176.541 194.203C176.702 194.397 176.783 194.653 176.783 194.972C176.783 195.221 176.716 195.452 176.582 195.664C176.448 195.876 176.254 196.047 176.001 196.176C175.747 196.306 175.44 196.37 175.08 196.37ZM178.293 196.287V192.632H177.054V191.773H180.557V192.632H179.318V196.287H178.293ZM182.043 194.003L181.932 194.418H182.894L182.79 194.003C182.73 193.776 182.668 193.536 182.603 193.283C182.543 193.029 182.483 192.784 182.423 192.549H182.396C182.34 192.789 182.283 193.036 182.223 193.29C182.167 193.539 182.107 193.776 182.043 194.003ZM180.409 196.287L181.821 191.773H183.046L184.459 196.287H183.379L183.102 195.214H181.724L181.447 196.287H180.409ZM184.952 196.287V191.773H186.579C186.897 191.773 187.188 191.817 187.451 191.905C187.714 191.988 187.924 192.131 188.081 192.334C188.238 192.537 188.316 192.819 188.316 193.179C188.316 193.511 188.242 193.786 188.095 194.003C187.952 194.215 187.758 194.374 187.513 194.48L188.538 196.287H187.396L186.53 194.66H185.969V196.287H184.952ZM185.969 193.85H186.496C186.763 193.85 186.966 193.795 187.105 193.684C187.248 193.569 187.319 193.4 187.319 193.179C187.319 192.957 187.248 192.803 187.105 192.715C186.966 192.627 186.763 192.583 186.496 192.583H185.969V193.85ZM189.955 196.287V192.632H188.716V191.773H192.219V192.632H190.979V196.287H189.955Z" fill="white"/>
<path d="M285.141 232.738L292.754 235.411L292.671 242.728C289.025 243.759 288.516 245.601 288.516 245.601L296.136 245.427L302.764 231.945L297.521 228.518L287.717 224.229" fill="#3A3737"/>
<g opacity="0.6">
<path d="M302.763 231.947L296.135 245.428L288.515 245.602L289.346 244.436L295.536 243.953L301.649 231.219L302.763 231.947Z" fill="white"/>
</g>
<path d="M292.644 239.379C292.702 239.456 293.134 239.192 293.726 239.199C294.319 239.205 294.751 239.437 294.809 239.36C294.866 239.282 294.441 238.851 293.726 238.864C293.011 238.876 292.573 239.34 292.644 239.379Z" fill="#263238"/>
<path d="M292.754 237.564C292.831 237.615 293.16 237.158 293.765 237.023C294.371 236.888 294.86 237.158 294.905 237.081C294.95 237.004 294.841 236.92 294.628 236.804C294.336 236.665 294.006 236.628 293.691 236.7C293.375 236.771 293.093 236.946 292.889 237.197C292.715 237.409 292.69 237.538 292.754 237.564Z" fill="#263238"/>
<path d="M292.626 235.231C292.71 235.27 292.961 234.825 293.489 234.632C294.017 234.439 294.494 234.6 294.533 234.51C294.571 234.42 294.449 234.368 294.236 234.297C293.953 234.201 293.645 234.206 293.366 234.312C293.086 234.418 292.852 234.617 292.703 234.877C292.594 235.07 292.587 235.218 292.626 235.231Z" fill="#263238"/>
<path d="M292.065 235.223C292.162 235.223 292.104 234.721 292.329 234.206C292.555 233.69 292.928 233.394 292.883 233.31C292.838 233.227 292.29 233.439 292.02 234.077C291.749 234.715 291.981 235.269 292.065 235.223Z" fill="#263238"/>
<path d="M291.163 234.367C291.276 234.037 291.337 233.692 291.343 233.343C291.376 232.976 291.408 232.609 291.446 232.229C291.479 231.994 291.479 231.755 291.446 231.52C291.407 231.364 291.31 231.229 291.176 231.14C291.098 231.09 291.008 231.062 290.915 231.062C290.822 231.062 290.732 231.09 290.654 231.14C290.448 231.319 290.298 231.554 290.223 231.817C290.145 232.039 290.099 232.271 290.087 232.506C290.065 232.9 290.133 233.295 290.287 233.659C290.558 234.303 290.931 234.503 290.931 234.477C290.763 234.185 290.613 233.884 290.48 233.575C290.372 233.238 290.333 232.884 290.364 232.532C290.387 232.327 290.434 232.126 290.506 231.933C290.563 231.737 290.67 231.56 290.815 231.417C290.838 231.4 290.867 231.391 290.896 231.391C290.925 231.391 290.953 231.4 290.976 231.417C291.039 231.457 291.085 231.519 291.105 231.591C291.128 231.792 291.128 231.995 291.105 232.197C291.105 232.577 291.105 232.95 291.073 233.317C291.046 233.67 291.077 234.025 291.163 234.367Z" fill="#263238"/>
<path d="M291.04 234.703C291.072 234.703 290.847 234.348 290.261 234.155C289.865 234.035 289.441 234.046 289.051 234.185C288.662 234.324 288.327 234.584 288.096 234.928C288.08 234.977 288.074 235.029 288.079 235.08C288.085 235.131 288.102 235.18 288.129 235.224C288.176 235.298 288.246 235.354 288.328 235.385C288.444 235.427 288.566 235.451 288.689 235.456C288.903 235.477 289.119 235.477 289.333 235.456C289.68 235.425 290.019 235.338 290.338 235.199C290.886 234.96 291.137 234.683 291.111 234.658C291.085 234.632 290.789 234.812 290.261 234.98C289.952 235.079 289.631 235.135 289.307 235.147C289.121 235.163 288.933 235.163 288.747 235.147C288.659 235.141 288.573 235.123 288.489 235.096C288.425 235.057 288.444 235.063 288.444 235.044C288.48 234.974 288.53 234.912 288.592 234.864C288.661 234.796 288.737 234.736 288.818 234.683C288.967 234.578 289.133 234.498 289.307 234.445C289.606 234.354 289.922 234.339 290.229 234.4C290.506 234.481 290.777 234.582 291.04 234.703Z" fill="#263238"/>
<g opacity="0.6">
<path d="M296.683 231.857C296.685 231.975 296.711 232.092 296.759 232.201C296.807 232.309 296.875 232.407 296.961 232.489C297.046 232.571 297.147 232.635 297.257 232.678C297.368 232.721 297.486 232.742 297.604 232.739C297.722 232.737 297.839 232.711 297.948 232.663C298.056 232.616 298.154 232.547 298.236 232.462C298.318 232.376 298.382 232.275 298.425 232.165C298.468 232.054 298.489 231.937 298.486 231.818C298.484 231.7 298.458 231.583 298.41 231.475C298.363 231.366 298.294 231.268 298.209 231.186C298.123 231.104 298.022 231.04 297.912 230.997C297.801 230.954 297.684 230.933 297.565 230.936C297.447 230.938 297.33 230.964 297.222 231.012C297.113 231.059 297.015 231.128 296.933 231.214C296.851 231.299 296.787 231.4 296.744 231.51C296.701 231.621 296.68 231.738 296.683 231.857Z" fill="white"/>
</g>
<path d="M246.08 229.678L246.183 239.649C246.183 239.649 236.076 243.108 235.915 244.95L255.239 245.446L255.716 229.897L246.08 229.678Z" fill="#3A3737"/>
<g opacity="0.6">
<path d="M252.174 238.968C252.358 239.03 252.512 239.157 252.609 239.326C252.705 239.494 252.736 239.692 252.696 239.882C252.64 240.068 252.516 240.226 252.349 240.324C252.181 240.422 251.983 240.453 251.794 240.41C251.598 240.344 251.434 240.208 251.332 240.029C251.23 239.85 251.197 239.64 251.24 239.438C251.317 239.248 251.465 239.096 251.653 239.013C251.84 238.93 252.052 238.923 252.245 238.993" fill="white"/>
</g>
<g opacity="0.6">
<path d="M255.265 245.447V243.875L236.72 243.991C236.72 243.991 235.844 244.339 235.928 244.951L255.265 245.447Z" fill="white"/>
</g>
<path d="M245.867 239.546C245.867 239.636 246.344 239.694 246.801 240.01C247.259 240.326 247.491 240.731 247.581 240.693C247.671 240.654 247.542 240.107 246.982 239.739C246.421 239.372 245.855 239.456 245.867 239.546Z" fill="#263238"/>
<path d="M243.8 240.332C243.8 240.422 244.18 240.596 244.489 240.976C244.798 241.356 244.882 241.807 244.979 241.807C245.075 241.807 245.146 241.272 244.753 240.77C244.36 240.267 243.8 240.241 243.8 240.332Z" fill="#263238"/>
<path d="M242.602 242.728C242.692 242.728 242.833 242.284 242.602 241.762C242.37 241.24 241.957 241.021 241.893 241.118C241.829 241.215 242.118 241.479 242.305 241.91C242.492 242.342 242.511 242.722 242.602 242.728Z" fill="#263238"/>
<path d="M246.099 237.268C246.137 237.358 246.569 237.268 247.104 237.268C247.638 237.268 248.051 237.5 248.102 237.416C248.154 237.332 247.761 236.991 247.129 236.939C246.498 236.888 246.054 237.197 246.099 237.268Z" fill="#263238"/>
<g opacity="0.3">
<path d="M246.099 231.65L246.118 233.428L255.625 233.589L255.677 231.985L246.099 231.65Z" fill="black"/>
</g>
<path d="M246.112 235.256C246.43 235.345 246.767 235.345 247.085 235.256C247.435 235.204 247.776 235.109 248.103 234.973C248.298 234.891 248.487 234.797 248.67 234.689C248.78 234.634 248.881 234.56 248.966 234.47C249.03 234.405 249.07 234.32 249.081 234.229C249.091 234.138 249.071 234.046 249.024 233.968C248.978 233.902 248.917 233.847 248.847 233.808C248.777 233.769 248.698 233.747 248.618 233.742C248.495 233.74 248.371 233.753 248.251 233.781C248.043 233.826 247.841 233.891 247.645 233.974C247.315 234.113 247.009 234.302 246.737 234.535C246.273 234.941 246.093 235.288 246.145 235.308C246.196 235.327 246.415 235.05 246.879 234.722C247.149 234.528 247.443 234.372 247.755 234.258C247.937 234.189 248.124 234.135 248.315 234.097C248.521 234.052 248.695 234.052 248.747 234.148C248.798 234.245 248.747 234.193 248.747 234.251C248.684 234.318 248.61 234.372 248.528 234.412C248.354 234.522 248.18 234.612 248.013 234.696C247.707 234.833 247.39 234.945 247.066 235.031C246.742 235.08 246.423 235.155 246.112 235.256Z" fill="#263238"/>
<path d="M246.235 235.399C246.422 235.124 246.518 234.798 246.512 234.465C246.541 234.108 246.506 233.748 246.409 233.402C246.354 233.197 246.276 232.998 246.177 232.81C246.128 232.68 246.047 232.565 245.941 232.476C245.835 232.387 245.707 232.326 245.571 232.301C245.484 232.3 245.399 232.325 245.326 232.372C245.253 232.419 245.195 232.486 245.159 232.565C245.108 232.676 245.071 232.793 245.049 232.913C245.019 233.126 245.019 233.343 245.049 233.557C245.09 233.921 245.223 234.27 245.436 234.568C245.803 235.077 246.19 235.212 246.202 235.167C246.215 235.122 245.906 234.929 245.629 234.439C245.471 234.158 245.375 233.846 245.346 233.525C245.331 233.337 245.342 233.149 245.378 232.964C245.417 232.758 245.494 232.597 245.571 232.616C245.648 232.636 245.829 232.777 245.906 232.945C245.995 233.115 246.07 233.292 246.132 233.473C246.23 233.788 246.284 234.116 246.293 234.446C246.293 235.032 246.183 235.38 246.235 235.399Z" fill="#263238"/>
<path d="M291.053 224.596L268.773 216.313L292.194 213.021L293.372 201.613L249.577 205.433L243.394 214.341L245.017 225.511L287.691 236.358L291.053 224.596Z" fill="#9656A1"/>
<path d="M243.799 232.577L241.667 191.803C241.725 189.851 242.281 187.945 243.282 186.268C244.283 184.59 245.696 183.197 247.387 182.219C248.792 181.404 250.354 180.897 251.97 180.732C253.586 180.566 255.218 180.746 256.759 181.259L285.172 190.734L300.767 194.747C300.767 194.747 303.427 201.298 301.862 206.387C300.335 211.372 294.873 214.69 290.068 213.266C284.096 211.495 256.695 199.739 256.695 199.739V232.899L243.799 232.577Z" fill="#9656A1"/>
<path d="M289.668 213.369L289.501 213.318L289.011 213.131L287.15 212.384L280.316 209.594L257.803 200.306L256.656 199.829L256.843 199.707C256.843 208.937 256.811 217.228 256.798 223.237C256.798 226.22 256.798 228.635 256.759 230.323C256.759 231.141 256.759 231.785 256.759 232.255C256.759 232.461 256.759 232.629 256.759 232.751C256.769 232.809 256.769 232.868 256.759 232.925C256.754 232.867 256.754 232.809 256.759 232.751V232.255C256.759 231.798 256.759 231.154 256.759 230.323C256.759 228.635 256.759 226.22 256.721 223.237C256.721 217.228 256.721 208.937 256.682 199.707V199.514L256.862 199.585L258.009 200.061L280.489 209.421L287.188 212.287L289.031 213.079L289.507 213.292L289.668 213.369Z" fill="#3A3737"/>
<path d="M263.426 213.42C265.487 213.781 267.367 214.822 268.766 216.377C268.708 216.434 267.697 215.494 266.19 214.676C264.682 213.858 263.4 213.497 263.426 213.42Z" fill="#3A3737"/>
<path d="M254.234 194.193C254.846 195.048 255.352 195.974 255.741 196.95C256.207 197.892 256.561 198.884 256.798 199.907C256.727 199.907 256.205 198.619 255.509 197.06C254.814 195.501 254.17 194.251 254.234 194.193Z" fill="#3A3737"/>
<path d="M254.299 176.228L249.275 175.287L243.999 180.672L244.972 184.105L251.123 181.838L254.299 176.228Z" fill="#FFBE9D"/>
<path d="M207.876 163.939L213.589 162.65L222.788 164.087L222.433 169.955C222.433 169.955 219.58 170.367 218.568 170.032C217.959 169.832 217.304 169.819 216.688 169.994C216.688 169.994 217.248 171.147 216.282 171.333C215.316 171.52 213.737 171.926 213.441 170.56C213.198 170.575 212.958 170.505 212.762 170.361C212.565 170.218 212.425 170.01 212.365 169.775C212.365 169.775 211.618 170.045 211.283 168.738C210.948 167.43 211.142 165.465 213.725 164.84C213.86 164.808 213.924 164.499 213.667 164.512L209.583 165.278C209.583 165.278 206.839 165.401 207.876 163.939Z" fill="#FFBE9D"/>
<path d="M212.738 168.028C213.054 167.931 213.381 167.873 213.711 167.854C214.069 167.8 214.431 167.768 214.793 167.758C214.916 167.76 215.037 167.788 215.148 167.84C215.259 167.892 215.357 167.968 215.437 168.061C215.517 168.175 215.563 168.309 215.57 168.448C215.576 168.587 215.544 168.725 215.476 168.846C215.341 169.04 215.168 169.203 214.968 169.326C214.767 169.449 214.543 169.529 214.31 169.561C213.963 169.66 213.61 169.737 213.254 169.793C212.926 169.858 212.589 169.858 212.262 169.793C212.577 169.708 212.898 169.641 213.221 169.594C213.518 169.529 213.866 169.439 214.246 169.317C214.439 169.268 214.628 169.206 214.813 169.13C214.997 169.041 215.152 168.9 215.257 168.724C215.305 168.645 215.33 168.555 215.33 168.463C215.33 168.371 215.305 168.281 215.257 168.202C215.136 168.068 214.967 167.987 214.787 167.977C214.42 167.977 214.04 168.015 213.737 168.022C213.406 168.066 213.07 168.068 212.738 168.028Z" fill="#EB996E"/>
<path d="M213.717 166.765C213.717 166.836 213.434 166.984 213.215 167.325C212.996 167.667 212.964 168.002 212.893 168.008C212.822 168.015 212.732 167.596 213.009 167.184C213.286 166.771 213.717 166.701 213.717 166.765Z" fill="#EB996E"/>
<path d="M215.29 168.859C215.29 168.859 215.348 168.859 215.438 168.859C215.528 168.859 215.631 169.046 215.709 169.169C215.769 169.263 215.809 169.369 215.826 169.48C215.843 169.591 215.836 169.705 215.805 169.813C215.76 169.941 215.681 170.056 215.577 170.144C215.473 170.232 215.347 170.291 215.213 170.315C214.802 170.443 214.382 170.538 213.957 170.599C213.628 170.631 213.422 170.599 213.422 170.566C213.422 170.534 213.622 170.502 213.931 170.425C214.24 170.347 214.665 170.212 215.142 170.083C215.239 170.068 215.331 170.029 215.41 169.969C215.489 169.91 215.551 169.831 215.593 169.742C215.655 169.587 215.655 169.414 215.593 169.259C215.515 169.098 215.49 168.995 215.425 168.943C215.361 168.892 215.277 168.872 215.29 168.859Z" fill="#EB996E"/>
<path d="M215.67 169.857C215.67 169.857 215.734 169.741 215.915 169.715C216.142 169.7 216.368 169.759 216.559 169.883C216.657 169.951 216.737 170.042 216.794 170.147C216.851 170.252 216.883 170.369 216.887 170.488C216.887 170.656 216.887 170.759 216.829 170.759C216.771 170.759 216.765 170.662 216.713 170.52C216.669 170.351 216.569 170.202 216.43 170.095C216.275 169.994 216.103 169.924 215.921 169.889C215.779 169.863 215.689 169.889 215.67 169.857Z" fill="#EB996E"/>
<path d="M218.516 165.297L215.94 166.321L213.524 168.034C213.524 168.034 213.524 168.627 214.896 168.408C215.76 168.263 216.584 167.943 217.318 167.468C217.318 167.468 219.116 168.601 220.707 168.337" fill="#FFBE9D"/>
<path d="M220.681 168.337C220.681 168.337 220.598 168.369 220.43 168.402C220.186 168.429 219.94 168.429 219.696 168.402C218.825 168.294 217.987 168.005 217.235 167.551H217.351C216.451 168.159 215.402 168.511 214.317 168.569C214.134 168.575 213.951 168.549 213.776 168.492C213.672 168.461 213.579 168.401 213.509 168.318C213.438 168.236 213.392 168.135 213.377 168.028V167.97L213.428 167.931L215.876 166.231C216.669 165.928 217.319 165.683 217.776 165.522C218.009 165.423 218.25 165.347 218.498 165.297C218.281 165.43 218.053 165.542 217.815 165.632C217.371 165.825 216.733 166.096 215.947 166.418L213.525 168.15L213.577 168.047C213.577 168.125 213.686 168.234 213.815 168.279C213.962 168.328 214.117 168.35 214.272 168.344C215.309 168.285 216.313 167.956 217.184 167.39L217.248 167.352H217.306C218.027 167.802 218.827 168.11 219.664 168.26C220.001 168.31 220.341 168.336 220.681 168.337Z" fill="#EB996E"/>
<path d="M214.768 165.168C214.768 165.238 214.465 165.232 214.169 165.052C213.872 164.871 213.724 164.607 213.776 164.569C213.827 164.53 214.033 164.684 214.291 164.839C214.549 164.994 214.813 165.103 214.768 165.168Z" fill="#EB996E"/>
<path d="M244.151 174.458L244.169 174.463C246.279 175.13 248.568 174.938 250.538 173.93L244.151 174.458ZM244.151 174.458L244.134 174.455L222.528 171.316L223.116 163.194L246.091 163.999L246.167 164.001L246.228 163.957L262.195 152.45C262.829 152.131 263.482 151.853 264.151 151.615L269.777 164.061L250.538 173.93L244.151 174.458Z" fill="white" stroke="#3A3737" stroke-width="0.444848"/>
<path d="M300.348 194.651L298.957 192.209L284.09 188.486L285.842 191.514L300.348 194.651Z" fill="#FFBE9D"/>
<path d="M299.546 192.636H275.432L268.58 178.084L268.55 178.02L268.488 177.985L268.488 177.985L268.487 177.984L268.484 177.983L268.471 177.975L268.42 177.945C268.375 177.919 268.308 177.88 268.222 177.828C268.052 177.726 267.807 177.575 267.514 177.384C266.927 177.001 266.145 176.457 265.364 175.812C264.583 175.166 263.808 174.423 263.232 173.644C262.652 172.861 262.289 172.065 262.289 171.306C262.289 169.667 262.832 164.822 263.379 160.3C263.616 158.34 263.853 156.447 264.045 154.91C264.074 154.677 264.103 154.452 264.13 154.237C264.232 153.418 264.317 152.732 264.377 152.234C264.407 151.985 264.431 151.783 264.447 151.634C264.451 151.594 264.455 151.556 264.458 151.522L275.894 149.203L282.686 153.778C285.393 156.442 285.909 158.475 286.673 161.487C286.899 162.376 287.146 163.351 287.477 164.452L291.284 177.115L291.29 177.136L291.301 177.156L299.546 192.636Z" fill="white" stroke="#3A3737" stroke-width="0.444848"/>
<path d="M271.401 164.079L275.536 181.432L254.679 175.57L251.123 181.857L278.261 194.212C279.883 194.95 281.713 195.096 283.432 194.625C285.151 194.155 286.651 193.097 287.672 191.635C288.302 190.733 288.731 189.706 288.928 188.623C289.124 187.54 289.085 186.427 288.812 185.361L282.737 161.625C282.541 160.851 282.186 160.126 281.696 159.495C281.206 158.865 280.591 158.342 279.889 157.961C279.188 157.579 278.415 157.346 277.619 157.277C276.823 157.209 276.022 157.305 275.265 157.56C273.946 158.002 272.83 158.904 272.12 160.101C271.411 161.297 271.155 162.709 271.401 164.079Z" fill="white"/>
<path d="M268.767 178.985C268.587 178.655 268.371 178.346 268.122 178.064C267.968 177.987 267.749 177.871 267.478 177.71C266.681 177.26 265.917 176.754 265.192 176.196C264.08 175.386 263.161 174.341 262.499 173.136C261.855 171.693 261.855 169.915 262.119 168.176C262.383 166.437 262.763 164.788 262.944 163.274C263.124 161.761 263.336 160.402 263.42 159.255C263.504 158.108 263.523 157.174 263.523 156.53C263.523 155.886 263.523 155.525 263.523 155.525C263.55 155.609 263.565 155.696 263.568 155.783C263.568 155.951 263.607 156.202 263.626 156.524C263.674 157.438 263.674 158.354 263.626 159.268C263.568 160.421 263.427 161.799 263.208 163.313C262.989 164.827 262.654 166.476 262.402 168.215C262.151 169.954 262.119 171.661 262.737 173.033C263.372 174.21 264.251 175.237 265.314 176.048C266.025 176.615 266.767 177.142 267.536 177.626C268.022 178.004 268.438 178.464 268.767 178.985Z" fill="#263238"/>
<path d="M277.063 150.115C276.955 150.273 276.827 150.416 276.683 150.54C276.431 150.798 276.039 151.185 275.581 151.603C274.634 152.486 273.288 153.671 271.716 154.908C270.145 156.144 268.728 157.201 267.658 157.935C267.124 158.302 266.686 158.579 266.37 158.779C266.216 158.891 266.05 158.984 265.874 159.056C266.008 158.921 266.154 158.801 266.312 158.695L267.542 157.78C268.579 157.014 270.009 155.938 271.549 154.702C273.088 153.465 274.448 152.312 275.414 151.481L276.573 150.476C276.722 150.337 276.886 150.216 277.063 150.115Z" fill="#263238"/>
<path d="M271.401 164.078C271.446 164.186 271.481 164.298 271.504 164.413C271.569 164.654 271.652 164.976 271.755 165.379C271.903 165.967 272.09 166.717 272.312 167.612C272.419 168.042 272.534 168.505 272.657 168.999C273.411 172.104 274.461 176.433 275.659 181.399L275.71 181.612L275.504 181.554L270.21 180.079L254.751 175.687L252.154 180.195L251.42 181.431L251.227 181.747C251.182 181.824 251.156 181.856 251.149 181.856C251.162 181.814 251.179 181.773 251.201 181.734L251.375 181.405L252.058 180.117L254.634 175.499L254.673 175.434H254.744L270.293 179.776L275.404 181.224C274.259 176.338 273.259 172.08 272.535 169.012C272.413 168.475 272.297 167.974 272.191 167.513C271.994 166.658 271.828 165.938 271.71 165.373C271.697 165.313 271.685 165.256 271.673 165.2C271.6 164.869 271.542 164.603 271.498 164.394C271.458 164.291 271.425 164.186 271.401 164.078Z" fill="#263238"/>
<path d="M271.401 164.078C271.446 164.186 271.481 164.298 271.504 164.413C271.569 164.654 271.652 164.976 271.755 165.379C271.903 165.967 272.09 166.717 272.312 167.612C272.419 168.042 272.534 168.505 272.657 168.999C273.411 172.104 274.461 176.433 275.659 181.399L275.71 181.612L275.504 181.554L270.21 180.079L254.751 175.687L252.154 180.195L251.42 181.431L251.227 181.747C251.182 181.824 251.156 181.856 251.149 181.856C251.162 181.814 251.179 181.773 251.201 181.734L251.375 181.405L252.058 180.117L254.634 175.499L254.673 175.434H254.744L270.293 179.776L275.404 181.224C274.259 176.338 273.259 172.08 272.535 169.012C272.413 168.475 272.297 167.974 272.191 167.513C271.994 166.658 271.828 165.938 271.71 165.373C271.697 165.313 271.685 165.256 271.673 165.2C271.6 164.869 271.542 164.603 271.498 164.394C271.458 164.291 271.425 164.186 271.401 164.078Z" stroke="#3A3737"/>
<path d="M282.828 162.998C282.876 163.094 282.91 163.196 282.931 163.301C282.996 163.526 283.073 163.81 283.176 164.164L284.013 167.385C284.703 170.116 285.649 173.826 286.687 177.955C287.195 180.023 287.698 181.987 288.123 183.791C288.546 185.386 288.679 187.044 288.516 188.686C288.384 189.797 287.987 190.86 287.356 191.785C287.13 192.125 286.847 192.423 286.519 192.667C286.789 192.37 287.038 192.056 287.266 191.727C287.857 190.802 288.223 189.752 288.336 188.661C288.466 187.041 288.313 185.41 287.885 183.842C287.434 182.052 286.944 180.087 286.429 178.045L283.852 167.455L283.092 164.235L282.899 163.359C282.865 163.241 282.841 163.12 282.828 162.998Z" fill="#263238"/>
<g opacity="0.3">
<path d="M286.615 192.846C289.668 193.123 291.44 191.384 291.768 188.981C291.84 187.657 291.606 186.335 291.085 185.116C289.211 179.628 287.317 174.095 284.348 169.109C285.468 174.095 286.924 178.881 288.026 183.867C288.381 185.252 288.54 186.681 288.496 188.112C288.426 189.856 287.762 191.524 286.615 192.839" fill="black"/>
</g>
<path d="M298.461 190.464C295.004 190.601 291.542 190.515 288.097 190.206C291.553 190.069 295.015 190.155 298.461 190.464Z" fill="#FAFAFA"/>
<path d="M284.474 127.072C284.845 123.757 280.902 122.004 280.902 122.004C280.902 122.004 281.064 121.701 281.261 121.26C281.261 121.26 280.822 121.675 278.866 120.407C276.91 119.139 276.238 118.671 276.238 118.671C277.537 119.123 278.784 119.714 279.957 120.433C280.092 120.54 280.247 120.617 280.413 120.66C280.58 120.703 280.753 120.71 280.922 120.682C281.092 120.653 281.253 120.589 281.396 120.494C281.539 120.399 281.661 120.275 281.753 120.13C281.968 119.787 282.503 117.79 281.384 118.577C279.386 119.98 270.016 112.309 265.992 115.816C261.968 119.324 268.038 121.234 268.038 121.234C273.926 123.825 276.943 129.165 278.199 132.026C278.717 133.194 279.531 132.483 279.713 132.151C280.291 131.089 280.111 130.508 278.201 127.555C278.201 127.555 279.442 128.381 280.374 131.117C280.834 130.387 281.28 129.862 281.682 130.729C282.084 131.595 282.774 131.764 283.217 131.096C283.3 130.957 283.699 129.758 282.033 127.054C282.546 127.319 282.985 127.707 283.311 128.184C283.638 128.661 283.84 129.212 283.901 129.787C284.196 128.907 284.388 127.996 284.474 127.072Z" fill="#263238"/>
<path opacity="0.2" d="M266.457 120.567C266.457 120.567 266.083 116.798 271.274 119.379C276.465 121.959 272.878 123.654 272.878 123.654L266.457 120.567Z" fill="black"/>
<path d="M264.705 121.862C264.705 121.862 264.25 117.311 270.525 120.425C276.799 123.539 272.463 125.597 272.463 125.597L264.705 121.862Z" fill="#FF6F61"/>
<path d="M267.129 145.517C266.842 144.438 266.479 143.381 266.043 142.354L273.378 139.051C273.252 139.665 273.165 140.287 273.117 140.912C272.936 143.269 273.187 147.401 276.588 149.341C276.588 149.341 274.192 155.094 269.157 154.902C268.894 154.895 268.633 154.858 268.379 154.793C267.973 154.669 267.596 154.466 267.268 154.197C266.941 153.927 266.67 153.595 266.471 153.221C266.272 152.846 266.148 152.436 266.107 152.013C266.066 151.591 266.109 151.165 266.233 150.759C266.233 150.759 267.183 150.487 267.449 148.937C267.576 147.787 267.467 146.623 267.129 145.517Z" fill="#EEC1BB"/>
<path opacity="0.2" d="M274.156 139.383C273.962 139.977 273.813 140.585 273.71 141.202L273.703 141.249C273.703 141.249 271.023 149.416 267.276 148.587C267.522 147.466 267.539 146.307 267.327 145.179C267.148 144.069 266.894 142.972 266.567 141.896L274.156 139.383Z" fill="black"/>
<path d="M267.427 147.969C259.434 149.965 256.321 145.247 255.566 136.406C254.976 129.32 256.577 125.328 263.376 124.26C274.658 122.512 278.585 143.608 267.427 147.969Z" fill="#EEC1BB"/>
<path d="M260.21 141.002C259.879 141.108 259.525 141.119 259.187 141.033C258.85 140.948 258.544 140.77 258.303 140.519C258.934 139.538 259.447 138.485 259.831 137.383L260.21 141.002Z" fill="#D58745"/>
<path d="M263.911 135.511C263.846 135.017 263.562 134.667 263.243 134.623L261.962 134.307C262.164 134.565 262.444 134.75 262.761 134.833C262.666 134.958 262.597 135.102 262.56 135.255C262.522 135.408 262.515 135.567 262.541 135.723C262.621 136.282 262.983 136.698 263.357 136.632C263.731 136.565 263.987 136.101 263.911 135.511Z" fill="#263238"/>
<path d="M257.711 136.44C257.646 135.946 257.346 135.595 257.043 135.552L255.801 135.242C256.004 135.497 256.285 135.679 256.601 135.76C256.505 135.887 256.437 136.032 256.4 136.187C256.364 136.342 256.359 136.502 256.387 136.659C256.459 137.217 256.821 137.633 257.196 137.566C257.57 137.5 257.783 136.998 257.711 136.44Z" fill="#263238"/>
<path d="M264.709 132.104C264.716 132.068 264.716 132.03 264.709 131.994C264.702 131.957 264.687 131.923 264.667 131.892C264.646 131.861 264.619 131.834 264.588 131.813C264.557 131.793 264.523 131.778 264.486 131.771C263.896 131.695 263.295 131.758 262.733 131.954C262.171 132.151 261.663 132.476 261.248 132.904C261.196 132.959 261.168 133.032 261.17 133.107C261.172 133.183 261.204 133.255 261.259 133.306C261.314 133.358 261.387 133.386 261.462 133.384C261.538 133.382 261.609 133.35 261.661 133.296C262.011 132.938 262.437 132.664 262.908 132.494C263.378 132.323 263.881 132.261 264.378 132.312C264.432 132.323 264.489 132.317 264.539 132.295C264.582 132.281 264.619 132.255 264.649 132.222C264.679 132.189 264.699 132.148 264.709 132.104Z" fill="#263238"/>
<path d="M255.285 133.836C255.676 133.632 256.108 133.522 256.549 133.515C256.989 133.509 257.425 133.605 257.822 133.796C257.889 133.83 257.966 133.839 258.039 133.82C258.112 133.801 258.175 133.756 258.217 133.693C258.256 133.628 258.267 133.55 258.25 133.476C258.232 133.402 258.186 133.339 258.122 133.298C257.646 133.066 257.123 132.946 256.593 132.947C256.064 132.948 255.541 133.071 255.066 133.305C255.033 133.319 255.003 133.34 254.977 133.366C254.952 133.392 254.933 133.423 254.92 133.456C254.907 133.49 254.901 133.526 254.902 133.562C254.904 133.599 254.912 133.634 254.928 133.667C254.952 133.728 254.999 133.778 255.059 133.804C255.093 133.825 255.13 133.838 255.169 133.843C255.208 133.849 255.247 133.846 255.285 133.836Z" fill="#263238"/>
<path d="M273 142.481C278.231 136.428 275.593 119.31 263.949 121.428C252.306 123.545 255.537 135.482 255.537 135.482C254.682 127.517 258.05 126.815 261.933 126.345C263.227 126.183 264.538 126.459 265.657 127.129C266.776 127.799 267.639 128.824 268.109 130.041C268.972 132.068 270.584 133.683 272.608 134.549C275.119 137.737 272.968 142.477 273 142.481Z" fill="#263238"/>
<path d="M261.756 142.936C262.278 143.013 262.81 142.9 263.255 142.617C263.7 142.334 264.028 141.9 264.179 141.395C264.185 141.373 264.187 141.35 264.184 141.328C264.182 141.305 264.174 141.284 264.163 141.264C264.152 141.245 264.136 141.228 264.118 141.215C264.1 141.201 264.079 141.192 264.057 141.187C264.014 141.176 263.968 141.183 263.929 141.206C263.89 141.228 263.862 141.265 263.85 141.308C263.728 141.741 263.451 142.113 263.071 142.353C262.692 142.593 262.237 142.684 261.795 142.607C261.758 142.609 261.723 142.621 261.693 142.642C261.663 142.663 261.64 142.693 261.627 142.727C261.614 142.772 261.619 142.821 261.641 142.863C261.663 142.905 261.701 142.936 261.746 142.95L261.756 142.936Z" fill="#2E353A"/>
<path d="M273.254 138.865C278.332 136.998 276.642 132.83 274.501 132.934C274.106 132.963 273.721 133.07 273.368 133.248C273.015 133.426 272.7 133.672 272.442 133.972C272.184 134.272 271.988 134.62 271.864 134.996C271.74 135.372 271.692 135.769 271.722 136.164C271.985 138.464 272.525 139.135 273.254 138.865Z" fill="#EEC1BB"/>
<path d="M265.913 136.228L273.268 133.293L273.143 132.608L265.733 135.536L261.136 136.517L258.739 136.974L254.809 137.668L254.883 138.829C254.931 139.678 255.515 140.26 256.176 140.131L257.702 139.83C258.063 139.707 258.37 139.463 258.572 139.14C258.773 138.817 258.857 138.434 258.809 138.056L258.789 137.688L261.146 137.289L261.165 137.664C261.221 138.506 261.797 139.088 262.466 138.959L264.809 138.495C265.168 138.371 265.475 138.127 265.676 137.804C265.878 137.481 265.962 137.099 265.915 136.721L265.913 136.228Z" fill="#263238"/>
</svg>
