<svg width="32" height="31" viewBox="0 0 32 31" fill="none" xmlns="http://www.w3.org/2000/svg">
<rect x="0.546875" y="0.0471191" width="30.6824" height="30.6824" rx="11.5059" fill="white" fill-opacity="0.1"/>
<path fill-rule="evenodd" clip-rule="evenodd" d="M19.5758 12.9396L22.2804 12.9396C22.2804 10.7681 20.9792 9.49951 18.7747 9.49951L13.0018 9.49951C10.7973 9.49951 9.49609 10.7681 9.49609 12.9119V17.593C9.49609 19.7368 10.7973 21.0054 13.0018 21.0054L18.7747 21.0054C20.9792 21.0054 22.2804 19.7368 22.2804 17.593V17.3935H19.5758C18.3206 17.3935 17.303 16.4015 17.303 15.1777C17.303 13.9539 18.3206 12.9618 19.5758 12.9618V12.9396ZM19.5745 13.8923L21.8018 13.8923C22.0654 13.8923 22.2791 14.1007 22.2791 14.3577V15.9752C22.276 16.231 22.0641 16.4376 21.8018 16.4406H19.6256C18.9901 16.4489 18.4345 16.0247 18.2903 15.4213C18.2182 15.0467 18.3195 14.6601 18.5672 14.3652C18.8149 14.0703 19.1836 13.8972 19.5745 13.8923ZM19.6742 15.5932H19.8844C20.1543 15.5932 20.3731 15.3799 20.3731 15.1168C20.3731 14.8537 20.1543 14.6404 19.8844 14.6404H19.6742C19.5451 14.6389 19.4208 14.6879 19.329 14.7764C19.2372 14.8648 19.1855 14.9854 19.1855 15.1113C19.1855 15.3753 19.4034 15.5902 19.6742 15.5932ZM12.5248 12.9399L16.1328 12.9399C16.4027 12.9399 16.6214 12.7266 16.6214 12.4635C16.6214 12.2004 16.4027 11.9871 16.1328 11.9871L12.5248 11.9871C12.2571 11.987 12.0392 12.197 12.0361 12.4579C12.0361 12.722 12.254 12.9368 12.5248 12.9399Z" fill="black"/>
</svg>
