<svg width="31" height="31" viewBox="0 0 31 31" fill="none" xmlns="http://www.w3.org/2000/svg">
<rect width="30.6824" height="30.6824" rx="11.5059" fill="white" fill-opacity="0.1"/>
<path d="M13.5145 20.8144V18.8599C13.5145 18.3609 13.9219 17.9565 14.4245 17.9565L16.2617 17.9565C16.5031 17.9565 16.7346 18.0516 16.9052 18.2211C17.0759 18.3905 17.1718 18.6203 17.1718 18.8599V20.8144C17.1702 21.0219 17.2522 21.2213 17.3994 21.3685C17.5466 21.5157 17.7469 21.5985 17.9559 21.5985H19.2093C19.7947 21.6 20.3566 21.3702 20.7711 20.9598C21.1856 20.5494 21.4185 19.9922 21.4185 19.411V13.8428C21.4185 13.3734 21.2089 12.9281 20.8462 12.6269L16.5822 9.24624C15.8405 8.65349 14.7778 8.67262 14.0582 9.29169L9.89157 12.6269C9.5117 12.9192 9.28466 13.3658 9.27344 13.8428V19.4053C9.27344 20.6166 10.2625 21.5985 11.4827 21.5985H12.7075C13.1415 21.5985 13.4942 21.2509 13.4973 20.8201L13.5145 20.8144Z" fill="#1E0B0B"/>
</svg>
