<svg width="46" height="46" viewBox="0 0 46 46" fill="none" xmlns="http://www.w3.org/2000/svg">
<g filter="url(#filter0_b_780_3875)">
<circle cx="23" cy="23" r="23" fill="white" fill-opacity="0.6"/>
</g>
<path d="M27.44 14.1001C25.63 14.1001 24.01 14.9801 23 16.3301C21.99 14.9801 20.37 14.1001 18.56 14.1001C15.49 14.1001 13 16.6001 13 19.6901C13 20.8801 13.19 21.9801 13.52 23.0001C15.1 28.0001 19.97 30.9901 22.38 31.8101C22.72 31.9301 23.28 31.9301 23.62 31.8101C26.03 30.9901 30.9 28.0001 32.48 23.0001C32.81 21.9801 33 20.8801 33 19.6901C33 16.6001 30.51 14.1001 27.44 14.1001Z" fill="#18333E"/>
<defs>
<filter id="filter0_b_780_3875" x="-50" y="-50" width="146" height="146" filterUnits="userSpaceOnUse" color-interpolation-filters="sRGB">
<feFlood flood-opacity="0" result="BackgroundImageFix"/>
<feGaussianBlur in="BackgroundImageFix" stdDeviation="25"/>
<feComposite in2="SourceAlpha" operator="in" result="effect1_backgroundBlur_780_3875"/>
<feBlend mode="normal" in="SourceGraphic" in2="effect1_backgroundBlur_780_3875" result="shape"/>
</filter>
</defs>
</svg>
