<svg width="25" height="25" viewBox="0 0 25 25" fill="none" xmlns="http://www.w3.org/2000/svg">
<mask id="mask0_762_3883" style="mask-type:luminance" maskUnits="userSpaceOnUse" x="0" y="0" width="25" height="25">
<path d="M0 0H25V25H0V0Z" fill="white"/>
</mask>
<g mask="url(#mask0_762_3883)">
<path fill-rule="evenodd" clip-rule="evenodd" d="M24.8047 12.4004C24.8047 19.2517 19.2555 24.8047 12.4043 24.8047C5.553 24.8047 0 19.2517 0 12.4004C0 5.54917 5.553 0 12.4043 0C19.2555 0 24.8047 5.54917 24.8047 12.4004Z" fill="#C26565"/>
</g>
<path fill-rule="evenodd" clip-rule="evenodd" d="M12 13.4981C9.35723 13.4981 7.21383 11.3705 7.21383 8.75095C7.21383 6.12763 9.35723 4 12 4C14.6428 4 16.7823 6.12763 16.7823 8.75095C16.7823 11.3705 14.6428 13.4981 12 13.4981ZM3 17.9669C3.00768 17.883 3.04225 17.8029 3.09987 17.7343C4.27913 16.2701 6.14213 15.4008 8.65045 15.4008H15.3496C17.854 15.4008 19.7209 16.2701 20.9001 17.7343C20.9539 17.8029 20.9923 17.883 21 17.9669C19.1562 20.9829 15.8182 23 12 23C8.18182 23 4.84379 20.9829 3 17.9669Z" fill="white"/>
</svg>
