<svg width="20" height="20" viewBox="0 0 20 20" fill="none" xmlns="http://www.w3.org/2000/svg">
<path d="M1.66699 9.99992L0.886123 9.37522L0.386367 9.99992L0.886123 10.6246L1.66699 9.99992ZM9.16699 10.9999C9.71928 10.9999 10.167 10.5522 10.167 9.99992C10.167 9.44763 9.71928 8.99992 9.16699 8.99992V10.9999ZM4.21946 5.20856L0.886123 9.37522L2.44786 10.6246L5.78119 6.45795L4.21946 5.20856ZM0.886123 10.6246L4.21946 14.7913L5.78119 13.5419L2.44786 9.37522L0.886123 10.6246ZM1.66699 10.9999H9.16699V8.99992H1.66699V10.9999Z" fill="white"/>
<path d="M8.33301 6.77669V6.61406C8.33301 5.1012 8.33301 4.34477 8.75067 3.80447C8.78716 3.75726 8.82575 3.71171 8.86632 3.66795C9.3306 3.16715 10.0767 3.04279 11.569 2.79408V2.79408C14.5984 2.28917 16.1132 2.03672 17.1427 2.81546C17.2309 2.88215 17.3153 2.95366 17.3956 3.02967C18.333 3.91721 18.333 5.45282 18.333 8.52404V11.4761C18.333 14.5473 18.333 16.083 17.3956 16.9705C17.3153 17.0465 17.2309 17.118 17.1427 17.1847C16.1132 17.9634 14.5979 17.7109 11.5675 17.2058V17.2058C10.0769 16.9574 9.33164 16.8332 8.86761 16.3336C8.82614 16.289 8.78673 16.2424 8.74951 16.1942C8.33301 15.6543 8.33301 14.899 8.33301 13.3884V13.3884" stroke="white" stroke-width="2"/>
</svg>
